<?xml version="1.0" encoding="utf-8"?>
<!-- Generator: Adobe Illustrator 22.0.1, SVG Export Plug-In . SVG Version: 6.00 Build 0)  -->
<svg version="1.1" id="Layer_1" xmlns="http://www.w3.org/2000/svg" xmlns:xlink="http://www.w3.org/1999/xlink" x="0px" y="0px"
	 viewBox="0 0 2231.4 1449.8" style="enable-background:new 0 0 2231.4 1449.8;" xml:space="preserve">
<style type="text/css">
	.st0{fill:#004B8D;stroke:#004B8D;stroke-width:2px;}
	.st1{fill:url(#SVGID_1_);}
	.st2{fill:url(#SVGID_2_);}
	.st3{fill:url(#SVGID_3_);}
	.st4{fill:url(#SVGID_4_);}
	.st5{fill:url(#SVGID_5_);}
	.st6{fill:url(#SVGID_6_);}
	.st7{fill:url(#SVGID_7_);}
	.st8{fill:url(#SVGID_8_);}
	.st9{fill:url(#SVGID_9_);}
	.st10{fill:url(#SVGID_10_);}
	.st11{fill:url(#SVGID_11_);}
	.st12{fill:url(#SVGID_12_);}
	.st13{fill:url(#SVGID_13_);}
	.st14{fill:url(#SVGID_14_);}
	.st15{fill:url(#SVGID_15_);}
	.st16{fill:url(#SVGID_16_);}
	.st17{fill:url(#SVGID_17_);}
	.st18{fill:url(#SVGID_18_);}
	.st19{fill:url(#SVGID_19_);}
	.st20{fill:url(#SVGID_20_);}
	.st21{fill:url(#SVGID_21_);}
	.st22{fill:url(#SVGID_22_);}
	.st23{fill:url(#SVGID_23_);}
	.st24{fill:url(#SVGID_24_);}
	.st25{fill:url(#SVGID_25_);}
	.st26{fill:url(#SVGID_26_);}
</style>
<g>
	<path class="st0" d="M62.5,1312.8c0-30.1,0-35.5-0.4-41.6c-0.4-6.6-1.9-9.6-8.3-11c-1.5-0.4-4.8-0.6-6.6-0.6
		c-0.8,0-1.5-0.4-1.5-1.2c0-1.2,1-1.5,3.1-1.5c8.7,0,20.8,0.6,21.8,0.6c2.3,0,14.5-0.6,26-0.6c19.1,0,54.4-1.7,77.3,22
		c9.6,10,18.7,26,18.7,49c0,24.3-10,43-20.8,54.4c-8.3,8.7-25.6,22.2-58.4,22.2c-8.3,0-18.5-0.6-26.8-1.2c-8.5-0.6-15-1.2-16-1.2
		c-0.4,0-3.7,0-7.7,0.2c-3.9,0-8.3,0.4-11.2,0.4c-2.1,0-3.1-0.4-3.1-1.5c0-0.6,0.4-1.2,1.5-1.2c1.7,0,4-0.4,5.8-0.8
		c3.9-0.8,4.8-5,5.6-10.6c1-8.1,1-23.3,1-41.8L62.5,1312.8L62.5,1312.8z M78.7,1333.6c0,20.4,0.2,38.2,0.4,41.8
		c0.2,4.8,0.6,12.5,2.1,14.7c2.5,3.7,10,7.7,32.8,7.7c17.9,0,34.5-6.6,45.9-17.9c10-9.8,15.4-28.3,15.4-46.1
		c0-24.5-10.6-40.3-18.5-48.6c-18.1-19.1-40.1-21.8-63-21.8c-3.9,0-11,0.6-12.5,1.3c-1.7,0.8-2.3,1.7-2.3,3.9
		c-0.2,6.6-0.2,26.2-0.2,41.1L78.7,1333.6L78.7,1333.6z"/>
	<path class="st0" d="M226.1,1326.1c0-25.4,0-30.1-0.4-35.3c-0.4-5.2-1.3-8.3-6.9-9.1c-1.3-0.2-4.2-0.4-5.8-0.4
		c-0.6,0-1.4-0.8-1.4-1.3c0-1,0.8-1.3,2.7-1.3c7.7,0,17.9,0.4,19.5,0.4s12.1-0.4,17.2-0.4c1.9,0,2.9,0.4,2.9,1.3
		c0,0.6-0.8,1.3-1.5,1.3c-1.2,0-2.1,0-4.2,0.4c-4.4,0.8-5.4,3.7-5.8,9.1c-0.4,5.2-0.4,9.8-0.4,35.3v22.9c0,23.7,5.2,33.5,12.5,40.1
		c8.3,7.5,15.6,8.9,25.3,8.9c10.4,0,20.4-4.6,26.2-11.6c7.9-9.4,9.6-22.9,9.6-39.7v-20.6c0-25.4-0.2-30.1-0.4-35.3
		c-0.2-5.2-1.2-8.3-6.7-9.1c-1.4-0.2-4.2-0.4-5.8-0.4c-0.8,0-1.3-0.8-1.3-1.3c0-1,0.8-1.3,2.7-1.3c7.5,0,17.4,0.4,18.3,0.4
		c1.2,0,9.3-0.4,14.3-0.4c1.9,0,2.7,0.4,2.7,1.3c0,0.6-0.6,1.3-1.4,1.3c-1.2,0-2.1,0-4.2,0.4c-4.6,1-5.6,3.7-6,9.1
		c-0.4,5.2-0.2,9.8-0.2,35.3v17.5c0,17.7-2.3,37.6-15.8,49.2c-12.3,10.6-25.4,12-35.5,12c-5.6,0-23.3-0.4-35.3-11.6
		c-8.3-7.7-14.8-19.1-14.8-43v-24.1L226.1,1326.1L226.1,1326.1z"/>
	<path class="st0" d="M375.9,1326.1c0-25.4,0-30.1-0.4-35.3c-0.4-5.6-1.3-8.7-6.9-9.4c-1.3-0.2-4.2-0.4-5.8-0.4
		c-0.6,0-1.4-0.4-1.4-1c0-1,0.8-1.3,2.7-1.3c7.7,0,18.7,0.4,19.7,0.4c4,0,12-0.4,19.9-0.4c28.3,0,35.7,16.4,35.7,25.1
		c0,12.9-8.5,21-17.2,28.7c12.9,3.9,29.9,15.6,29.9,34.1c0,18.3-13.7,36.4-42.6,36.4c-3.1,0-9.3-0.2-14.7-0.6
		c-5.4-0.2-10.2-0.4-11-0.4c-0.4,0-3.5,0.2-6.9,0.2c-3.5,0.2-7.5,0.4-10.2,0.4c-1.7,0-2.7-0.4-2.7-1.3c0-0.6,0.4-1,1.4-1
		c1.5,0,3.7-0.6,5.2-0.8c3.3-0.6,3.7-4.2,4.4-9.1c1-6.7,1-19.7,1-35.5v-28.8L375.9,1326.1L375.9,1326.1z M390.6,1329.5
		c0,1.2,0.4,1.5,1.2,1.7c1,0.2,4,0.8,10.4,0.8c9.4,0,13.1-0.4,16.6-4.2c3.7-4,6.6-9.6,6.6-17.5c0-12.5-6.9-26.4-23.9-26.4
		c-1.9,0-6,0.2-8.7,0.8c-1.5,0.4-2.1,0.8-2.1,1.7v43.1H390.6z M390.6,1347.7c0,12.7,0,32.4,0.2,34.9c0.6,7.9,0.6,9.8,5.8,12.3
		c4.6,2.1,11.8,2.3,14.8,2.3c11.2,0,24.9-4.2,24.9-25.3c0-7.3-2.9-21.4-16.2-29.9c-5.8-3.7-11.2-3.5-15.2-4.2
		c-2.1-0.4-10.6-0.4-13.3-0.4c-0.6,0-1,0.4-1,1.2L390.6,1347.7L390.6,1347.7z"/>
	<path class="st0" d="M519.2,1281.9c2.1-5.4,2.9-6.4,4-6.4c1.7,0,2.3,2.3,4,6c3.1,6.9,30.3,74.6,40.7,99.5
		c6.2,14.7,10.8,16.8,14.5,17.9c2.5,0.8,5,1,6.7,1c1,0,2.1,0.4,2.1,1.3c0,1-1.9,1.3-3.9,1.3c-2.5,0-15,0-26.8-0.4
		c-3.3-0.2-6-0.2-6-1.2c0-0.8,0.4-0.8,1.2-1.2c1-0.4,2.7-1.7,1.5-4.4l-15.2-37.6c-0.4-0.8-0.6-1-1.5-1h-39.1c-0.8,0-1.4,0.4-1.7,1.4
		l-9.6,26.2c-1.5,4-2.5,8.1-2.5,11c0,3.3,2.9,4.4,5.8,4.4h1.5c1.4,0,1.7,0.6,1.7,1.3c0,1-1,1.3-2.5,1.3c-4,0-13.3-0.6-15.2-0.6
		c-1.7,0-10.2,0.6-17.2,0.6c-2.1,0-3.3-0.4-3.3-1.3c0-0.8,0.8-1.3,1.5-1.3c1.2,0,3.7-0.2,5-0.4c7.7-1,11-6.7,14.3-15L519.2,1281.9z
		 M538.1,1350.2c0.8,0,0.8-0.4,0.6-1.2l-16.8-44.9c-1-2.5-1.9-2.5-2.9,0l-15.8,44.9c-0.2,0.8,0,1.2,0.6,1.2H538.1z"/>
	<path class="st0" d="M629.1,1355c0,15.8,0,28.7,0.8,35.5c0.6,4.8,1.2,7.9,6.2,8.7c2.5,0.4,6.2,0.8,7.7,0.8c1,0,1.4,0.8,1.4,1.3
		c0,0.8-0.8,1.3-2.7,1.3c-9.4,0-20.4-0.6-21.2-0.6c-1,0-11.6,0.6-16.8,0.6c-1.7,0-2.7-0.4-2.7-1.3c0-0.6,0.4-1.3,1.3-1.3
		c1.5,0,3.7-0.4,5.2-0.8c3.3-0.8,3.9-3.9,4.4-8.7c0.8-6.7,1-19.7,1-35.5v-28.9c0-25.4,0-30.1-0.4-35.3c-0.4-5.6-1.7-8.1-5.4-8.9
		c-1.9-0.4-4-0.6-5.2-0.6c-0.8,0-1.4-0.8-1.4-1.3c0-1,0.8-1.3,2.7-1.3c5.6,0,16.2,0.4,17.2,0.4c0.8,0,11.8-0.4,17-0.4
		c1.9,0,2.7,0.4,2.7,1.3c0,0.6-0.8,1.3-1.3,1.3c-1.2,0-2.3,0-4.2,0.4c-4.6,1-5.6,3.3-6,9.1c-0.2,5.2-0.2,9.8-0.2,35.3L629.1,1355
		L629.1,1355z"/>
	<path class="st0" d="M755.7,1312.8c0-30.1,0-35.5-0.4-41.6c-0.4-6.6-1.9-9.6-8.3-11c-1.5-0.4-4.8-0.6-6.6-0.6
		c-0.8,0-1.5-0.4-1.5-1.2c0-1.2,1-1.5,3.1-1.5c8.7,0,20.8,0.6,21.8,0.6c2.1,0,16.8-0.6,22.8-0.6c12.1,0,25.1,1.2,35.3,8.5
		c4.8,3.5,13.3,12.9,13.3,26.2c0,14.3-6,28.5-23.3,44.5c15.8,20.2,28.9,37.4,40.1,49.4c10.4,11,18.7,13.1,23.5,13.9
		c3.7,0.6,6.4,0.6,7.5,0.6c1,0,1.7,0.6,1.7,1.2c0,1.2-1.2,1.5-4.6,1.5h-13.7c-10.8,0-15.6-1-20.6-3.7c-8.3-4.4-15-13.9-26-28.3
		c-8.1-10.6-17.2-23.5-21-28.5c-0.8-0.8-1.3-1.2-2.5-1.2l-23.7-0.4c-1,0-1.3,0.6-1.3,1.5v4.6c0,18.5,0,33.7,1,41.8
		c0.6,5.6,1.7,9.8,7.5,10.6c2.7,0.4,6.9,0.8,8.7,0.8c1.2,0,1.5,0.6,1.5,1.2c0,1-1,1.5-3.1,1.5c-10.6,0-22.8-0.6-23.7-0.6
		c-0.2,0-12.3,0.6-18.1,0.6c-2.1,0-3.1-0.4-3.1-1.5c0-0.6,0.4-1.2,1.5-1.2c1.7,0,4-0.4,5.8-0.8c3.9-0.8,4.8-5,5.6-10.6
		c1-8.1,1-23.3,1-41.8v-33.9H755.7z M771.1,1329.5c0,1,0.4,1.7,1.3,2.3c2.9,1.7,11.8,3.1,20.2,3.1c4.6,0,10-0.6,14.5-3.7
		c6.7-4.6,11.8-15,11.8-29.7c0-24.1-12.7-38.6-33.4-38.6c-5.8,0-11,0.6-12.9,1.2c-1,0.4-1.5,1.2-1.5,2.3L771.1,1329.5L771.1,1329.5z
		"/>
	<path class="st0" d="M896.6,1326.1c0-25.4,0-30.1-0.4-35.3c-0.4-5.6-1.3-8.3-6.9-9.1c-1.3-0.2-4.2-0.4-5.8-0.4
		c-0.6,0-1.4-0.8-1.4-1.3c0-1,0.8-1.3,2.7-1.3c7.7,0,18.7,0.4,19.7,0.4c1.2,0,36.6,0.2,40.5,0c3.3-0.2,6.4-0.8,7.7-1
		c0.8-0.2,1.5-0.8,2.3-0.8c0.6,0,0.8,0.8,0.8,1.5c0,1.2-1,3.1-1.3,7.7c-0.2,1.5-0.6,8.9-1,10.8c-0.2,0.8-0.8,1.7-1.5,1.7
		c-1,0-1.3-0.8-1.3-2.1c0-1.2-0.2-3.9-1-5.8c-1.2-2.7-2.9-3.9-12.1-5c-2.9-0.4-22.6-0.6-24.5-0.6c-0.8,0-1,0.6-1,1.7v44.5
		c0,1.2,0,1.7,1,1.7c2.1,0,24.5,0,28.3-0.4c4-0.4,6.6-0.6,8.3-2.3c1.2-1.2,1.9-2.1,2.5-2.1s1,0.4,1,1.3s-1,3.7-1.4,9.1
		c-0.4,3.3-0.8,9.4-0.8,10.6c0,1.3-0.4,3.1-1.5,3.1c-0.8,0-1.2-0.6-1.2-1.5c0-1.5,0-3.3-0.8-5.4c-0.6-2.3-2.1-4.2-8.7-5
		c-4.6-0.6-22.8-0.8-25.6-0.8c-1,0-1.2,0.6-1.2,1.2v13.7c0,5.6-0.2,24.7,0,28c0.4,11,3.5,13.1,20.2,13.1c4.4,0,12.5,0,17-1.7
		c4.4-1.9,6.7-4.8,7.7-11.4c0.4-1.9,0.8-2.5,1.7-2.5c1,0,1.2,1.3,1.2,2.5s-1.4,12.3-2.3,15.8c-1.2,4.2-2.9,4.2-9.4,4.2
		c-12.7,0-22.6-0.4-29.5-0.6c-7.1-0.4-11.6-0.4-14.1-0.4c-0.4,0-3.7,0-7.3,0.2c-3.3,0.2-7.1,0.4-9.8,0.4c-1.7,0-2.7-0.4-2.7-1.3
		c0-0.6,0.4-1.3,1.4-1.3c1.5,0,3.7-0.6,5.2-0.8c3.3-0.6,3.7-3.9,4.4-8.7c1-6.7,1-19.7,1-35.5v-28.8L896.6,1326.1L896.6,1326.1z"/>
	<path class="st0" d="M1002.9,1326.1c0-25.4,0-30.1-0.4-35.3c-0.4-5.6-1.4-8.3-6.9-9.1c-1.4-0.2-4.2-0.4-5.8-0.4
		c-0.6,0-1.3-0.8-1.3-1.3c0-1,0.8-1.3,2.7-1.3c7.7,0,18.3,0.4,19.3,0.4c3.3,0,40.1,0.2,44,0c3.3-0.2,6.2-0.2,7.7-0.8
		c1-0.2,1.7-1,2.3-1c0.8,0,1.2,0.8,1.2,1.5c0,1.2-0.8,3.1-1.3,7.7c-0.2,1.5-0.4,8.9-0.8,10.8c-0.2,0.8-0.8,1.7-1.5,1.7
		s-1.4-0.8-1.4-1.9c0-1.3-0.6-4-1.5-6.2c-1-2.1-5-4.8-11.6-4.8l-27.8-0.4c-1,0-1.4,0.4-1.4,1.7v44.7c0,1,0,1.5,1.2,1.5l23.1-0.2
		c2.9,0,5.4,0,7.7-0.2c4-0.4,6.4-1,7.9-2.9c0.8-1,1.5-1.7,2.1-1.7c0.8,0,1,0.6,1,1.3c0,1-1.2,3.7-1.5,9.1c-0.4,3.3-0.6,9.8-0.6,11
		c0,1.5-0.4,3.3-1.5,3.3c-1,0-1.2-0.8-1.2-1.5c-0.2-1.7-0.4-4-1.2-6c-0.8-2.3-3.5-4.4-8.7-5.2c-4.2-0.6-24.3-0.4-27.2-0.4
		c-1,0-1.2,0.4-1.2,1.5v13.1c0,16.2,0,29.1,0.8,35.5c0.6,4.8,1.5,7.9,6.2,8.7c2.5,0.4,6.2,0.8,7.7,0.8c1,0,1.4,0.8,1.4,1.3
		c0,0.8-0.8,1.3-2.7,1.3c-9.4,0-20.4-0.6-21.2-0.6c-1,0-11.6,0.6-16.8,0.6c-1.7,0-2.7-0.4-2.7-1.3c0-0.6,0.4-1.3,1.3-1.3
		c1.5,0,3.7-0.6,5.2-0.8c3.3-0.6,3.7-3.9,4.4-8.7c1-6.7,1-19.7,1-35.5L1002.9,1326.1L1002.9,1326.1z"/>
	<path class="st0" d="M1106,1326.1c0-25.4,0-30.1-0.4-35.3c-0.4-5.6-1.3-8.3-6.9-9.1c-1.3-0.2-4.2-0.4-5.8-0.4
		c-0.6,0-1.4-0.8-1.4-1.3c0-1,0.8-1.3,2.7-1.3c7.7,0,19.1,0.4,20.1,0.4c1.7,0,16-0.4,21.2-0.4c10.8,0,22.8,1,31.6,7.1
		c4.2,3.1,11.8,11,11.8,22.4c0,12.1-5,23.9-20.8,37.4c13.9,17.4,25.6,32.2,35.5,42.4c9.1,9.3,14.7,10.8,18.9,11.4
		c3.3,0.6,5,0.6,6,0.6s1.5,0.8,1.5,1.3c0,1-1,1.3-4,1.3h-10.6c-9.6,0-13.9-1-18.1-3.3c-7.3-3.9-13.5-11.8-23.1-24.1
		c-7.1-8.9-14.7-19.5-18.3-23.9c-0.8-0.8-1.2-1-2.3-1l-21.6-0.4c-0.8,0-1.2,0.4-1.2,1.3v3.9c0,15.8,0,28.5,0.8,35.3
		c0.6,4.8,1.5,7.9,6.7,8.7c2.3,0.4,6,0.8,7.5,0.8c1.2,0,1.3,0.8,1.3,1.3c0,0.8-0.8,1.3-2.7,1.3c-9.3,0-20.1-0.6-20.8-0.6
		c-0.2,0-11.6,0.6-16.8,0.6c-1.7,0-2.7-0.4-2.7-1.3c0-0.6,0.4-1.3,1.4-1.3c1.5,0,3.7-0.4,5.2-0.8c3.3-0.8,3.7-3.9,4.4-8.7
		c1-6.7,1-19.7,1-35.5L1106,1326.1L1106,1326.1z M1120.7,1339.9c0,1,0.4,1.5,1.2,2.1c2.5,1.3,11.2,2.5,18.7,2.5
		c4,0,8.7-0.2,12.7-2.9c5.8-3.9,10.2-12.5,10.2-25.1c0-20.4-11.2-32.2-29.3-32.2c-5,0-10.4,0.6-12.1,1c-0.8,0.4-1.3,1-1.3,1.9
		L1120.7,1339.9L1120.7,1339.9z"/>
	<path class="st0" d="M1235.6,1326.1c0-25.4,0-30.1-0.4-35.3c-0.4-5.6-1.3-8.3-6.9-9.1c-1.4-0.2-4.2-0.4-5.8-0.4
		c-0.6,0-1.3-0.8-1.3-1.3c0-1,0.8-1.3,2.7-1.3c7.7,0,18.7,0.4,19.7,0.4c1.2,0,36.6,0.2,40.5,0c3.3-0.2,6.4-0.8,7.7-1
		c0.8-0.2,1.5-0.8,2.3-0.8c0.6,0,0.8,0.8,0.8,1.5c0,1.2-1,3.1-1.3,7.7c-0.2,1.5-0.6,8.9-1,10.8c-0.2,0.8-0.8,1.7-1.5,1.7
		c-1,0-1.4-0.8-1.4-2.1c0-1.2-0.2-3.9-1-5.8c-1.2-2.7-2.9-3.9-12.1-5c-2.9-0.4-22.6-0.6-24.5-0.6c-0.8,0-1,0.6-1,1.7v44.5
		c0,1.2,0,1.7,1,1.7c2.1,0,24.5,0,28.3-0.4c4-0.4,6.6-0.6,8.3-2.3c1.2-1.2,1.9-2.1,2.5-2.1s1,0.4,1,1.3s-1,3.7-1.3,9.1
		c-0.4,3.3-0.8,9.4-0.8,10.6c0,1.3-0.4,3.1-1.5,3.1c-0.8,0-1.2-0.6-1.2-1.5c0-1.5,0-3.3-0.8-5.4c-0.6-2.3-2.1-4.2-8.7-5
		c-4.6-0.6-22.7-0.8-25.6-0.8c-1,0-1.2,0.6-1.2,1.2v13.7c0,5.6-0.2,24.7,0,28c0.4,11,3.5,13.1,20.2,13.1c4.4,0,12.5,0,17-1.7
		c4.4-1.9,6.7-4.8,7.7-11.4c0.4-1.9,0.8-2.5,1.7-2.5s1.2,1.3,1.2,2.5s-1.3,12.3-2.3,15.8c-1.2,4.2-2.9,4.2-9.4,4.2
		c-12.7,0-22.6-0.4-29.5-0.6c-7.1-0.4-11.6-0.4-14.1-0.4c-0.4,0-3.7,0-7.3,0.2c-3.3,0.2-7.1,0.4-9.8,0.4c-1.7,0-2.7-0.4-2.7-1.3
		c0-0.6,0.4-1.3,1.3-1.3c1.5,0,3.7-0.6,5.2-0.8c3.3-0.6,3.7-3.9,4.4-8.7c1-6.7,1-19.7,1-35.5L1235.6,1326.1L1235.6,1326.1z"/>
	<path class="st0" d="M1327.5,1400.3c-2.3-1.2-2.5-1.7-2.5-6.2c0-8.1,0.8-14.7,1-17.4c0-1.7,0.4-2.7,1.3-2.7c1,0,1.5,0.6,1.5,1.9
		s0,3.7,0.6,6c2.7,12,15.4,16.2,26.8,16.2c16.8,0,25.4-9.4,25.4-21.8c0-11.8-6.4-17.4-21.4-28.5l-7.7-5.8
		c-18.3-13.7-24.3-23.7-24.3-35.1c0-19.3,15.2-30.8,37.6-30.8c6.7,0,13.5,1,17.5,1.9c3.3,0.8,4.6,0.8,6,0.8s1.7,0.2,1.7,1.2
		c0,0.8-0.8,6.2-0.8,17.4c0,2.5-0.2,3.7-1.3,3.7c-1.2,0-1.3-0.8-1.5-2.1c-0.2-1.9-1.5-6.4-2.5-8.1c-1.2-1.9-6.7-8.1-22-8.1
		c-12.3,0-22.6,6.2-22.6,17.7c0,10.4,5.2,16.4,22,27.8l4.8,3.3c20.6,14.1,27.8,25.4,27.8,39.5c0,9.6-3.7,20.1-15.8,28
		c-7.1,4.6-17.7,5.8-27,5.8C1344.3,1404.7,1334.5,1403.6,1327.5,1400.3z"/>
	<path class="st0" d="M1542.5,1355c0,15.8,0.2,28.7,1,35.5c0.6,4.8,1,7.9,6.2,8.7c2.3,0.4,6.2,0.8,7.5,0.8c1.2,0,1.5,0.8,1.5,1.3
		c0,0.8-1,1.3-2.9,1.3c-9.3,0-20.1-0.6-21-0.6c-0.8,0-11.8,0.6-16.8,0.6c-1.9,0-2.7-0.4-2.7-1.3c0-0.6,0.4-1.3,1.3-1.3
		c1.5,0,3.5-0.4,5-0.8c3.5-0.8,4-4,4.6-8.9c0.8-6.7,0.8-19.1,0.8-34.9V1339c0-0.8-0.4-1-1-1h-70.8c-0.6,0-1,0.2-1,1v16.4
		c0,15.8,0,28.3,0.8,35.1c0.6,4.8,1.2,7.9,6.2,8.7c2.5,0.4,6.2,0.8,7.7,0.8c1,0,1.3,0.8,1.3,1.3c0,0.8-0.8,1.3-2.7,1.3
		c-9.4,0-20.2-0.6-21-0.6c-1,0-11.8,0.6-17,0.6c-1.7,0-2.7-0.4-2.7-1.3c0-0.6,0.4-1.3,1.3-1.3c1.5,0,3.7-0.4,5.2-0.8
		c3.3-0.8,3.7-3.9,4.4-8.7c1-6.7,1-19.7,1-35.5v-28.9c0-25.4,0-30.1-0.4-35.3c-0.4-5.6-1.3-8.3-6.9-9.1c-1.4-0.2-4.2-0.4-5.8-0.4
		c-0.6,0-1.3-0.8-1.3-1.3c0-1,0.8-1.3,2.7-1.3c7.7,0,18.5,0.4,19.5,0.4c0.8,0,11.6-0.4,16.8-0.4c1.9,0,2.7,0.4,2.7,1.3
		c0,0.6-0.8,1.3-1.3,1.3c-1.2,0-2.3,0-4.2,0.4c-4.6,1-5.6,3.3-6,9.1c-0.2,5.2-0.2,10.2-0.2,35.7v3.5c0,1,0.4,1,1,1h70.8
		c0.6,0,1,0,1-1v-3.5c0-25.4-0.2-30.5-0.4-35.7c-0.4-5.6-1.2-8.3-6.8-9.1c-1.3-0.2-4.2-0.4-5.8-0.4c-0.8,0-1.3-0.8-1.3-1.3
		c0-1,0.8-1.3,2.7-1.3c7.5,0,18.5,0.4,19.3,0.4c1,0,11.8-0.4,16.8-0.4c1.9,0,2.9,0.4,2.9,1.3c0,0.6-0.8,1.3-1.5,1.3
		c-1.2,0-2.1,0-4.2,0.4c-4.4,1-5.4,3.3-5.8,9.1c-0.4,5.2-0.4,9.8-0.4,35.3L1542.5,1355L1542.5,1355z"/>
	<path class="st0" d="M1729.3,1381.4c0.6,5.8,1.7,14.7,8.7,17c4.8,1.5,9.3,1.5,11,1.5c0.8,0,1.3,0.4,1.3,1.2c0,1-1.5,1.5-3.5,1.5
		c-3.9,0-22.8-0.4-28.9-1c-4-0.4-4.8-1-4.8-1.7c0-0.6,0.4-1.2,1.2-1.4c1-0.2,1.2-2.7,0.8-5.8l-8.1-82.9h-0.4l-40.9,83.7
		c-3.5,7.1-4.4,8.7-6,8.7c-1.5,0-2.5-1.5-5.8-7.5c-4.4-8.1-15.6-29.1-19.9-38c-5-10.4-18.7-38-21.6-44.7h-0.8l-6.6,74
		c-0.2,2.5-0.2,5.6-0.2,8.3c0,2.5,1.5,4,4,4.6c2.9,0.8,5.4,1,6.6,1c0.6,0,1.3,0.6,1.3,1.2c0,1.2-1.2,1.5-3.1,1.5
		c-6.4,0-14.5-0.6-15.8-0.6c-1.5,0-9.6,0.6-14.3,0.6c-1.7,0-2.9-0.4-2.9-1.5c0-0.6,0.8-1.2,1.7-1.2c1.3,0,2.5-0.2,5-0.6
		c5.6-1,5.8-6.9,6.6-13.1l12.3-107c0.2-1.7,1-2.9,1.9-2.9c1.2,0,2.5,0.6,3.5,2.5l51.3,101.8l49.4-101.6c0.8-1.5,1.5-2.7,2.7-2.7
		s2.1,1.3,2.5,4.4L1729.3,1381.4z"/>
	<path class="st0" d="M1780.4,1326.1c0-25.4,0-30.1-0.4-35.3c-0.4-5.6-1.3-8.3-6.9-9.1c-1.4-0.2-4.2-0.4-5.8-0.4
		c-0.6,0-1.3-0.8-1.3-1.3c0-1,0.8-1.3,2.7-1.3c7.7,0,18.7,0.4,19.7,0.4c1.2,0,36.6,0.2,40.5,0c3.3-0.2,6.4-0.8,7.7-1
		c0.8-0.2,1.5-0.8,2.3-0.8c0.6,0,0.8,0.8,0.8,1.5c0,1.2-1,3.1-1.3,7.7c-0.2,1.5-0.6,8.9-1,10.8c-0.2,0.8-0.8,1.7-1.5,1.7
		c-1,0-1.4-0.8-1.4-2.1c0-1.2-0.2-3.9-1-5.8c-1.2-2.7-2.9-3.9-12.1-5c-2.9-0.4-22.6-0.6-24.5-0.6c-0.8,0-1,0.6-1,1.7v44.5
		c0,1.2,0,1.7,1,1.7c2.1,0,24.5,0,28.3-0.4c4-0.4,6.6-0.6,8.3-2.3c1.2-1.2,1.9-2.1,2.5-2.1s1,0.4,1,1.3s-1,3.7-1.3,9.1
		c-0.4,3.3-0.8,9.4-0.8,10.6c0,1.3-0.4,3.1-1.5,3.1c-0.8,0-1.2-0.6-1.2-1.5c0-1.5,0-3.3-0.8-5.4c-0.6-2.3-2.1-4.2-8.7-5
		c-4.6-0.6-22.7-0.8-25.6-0.8c-1,0-1.2,0.6-1.2,1.2v13.7c0,5.6-0.2,24.7,0,28c0.4,11,3.5,13.1,20.2,13.1c4.4,0,12.5,0,17-1.7
		c4.4-1.9,6.7-4.8,7.7-11.4c0.4-1.9,0.8-2.5,1.7-2.5c1,0,1.2,1.3,1.2,2.5s-1.3,12.3-2.3,15.8c-1.2,4.2-2.9,4.2-9.4,4.2
		c-12.7,0-22.6-0.4-29.5-0.6c-7.1-0.4-11.6-0.4-14.1-0.4c-0.4,0-3.7,0-7.3,0.2c-3.3,0.2-7.1,0.4-9.8,0.4c-1.7,0-2.7-0.4-2.7-1.3
		c0-0.6,0.4-1.3,1.3-1.3c1.5,0,3.7-0.6,5.2-0.8c3.3-0.6,3.7-3.9,4.4-8.7c1-6.7,1-19.7,1-35.5L1780.4,1326.1L1780.4,1326.1z"/>
	<path class="st0" d="M1893.7,1380.2c0.4,13.5,1.9,17.5,6.6,18.7c3.1,0.8,6.9,1,8.5,1c0.8,0,1.4,0.6,1.4,1.3c0,1-1.2,1.3-3.1,1.3
		c-9.6,0-16.4-0.6-17.9-0.6s-8.7,0.6-16.4,0.6c-1.7,0-2.7-0.2-2.7-1.3c0-0.8,0.6-1.3,1.3-1.3c1.3,0,4.4-0.2,6.9-1
		c4.2-1.2,4.8-5.6,4.8-20.4v-93.9c0-6.6,1-8.3,2.3-8.3c1.9,0,4.8,3.3,6.6,5c2.7,2.7,27.4,28.9,53.6,55.9
		c16.8,17.4,34.9,36.8,40.1,42.2l-1.7-82.1c-0.2-10.6-1.2-14.3-6.4-15.2c-3.1-0.6-6.9-0.8-8.3-0.8c-1.2,0-1.3-1-1.3-1.5
		c0-1,1.3-1.2,3.3-1.2c7.7,0,15.8,0.4,17.7,0.4c1.9,0,7.5-0.4,14.5-0.4c1.7,0,3.1,0.2,3.1,1.2c0,0.6-0.8,1.5-1.9,1.5
		c-0.8,0-2.1,0-4,0.4c-5.6,1.2-6,4.4-6,14.3l-0.4,96c0,10.8-0.2,11.8-1.3,11.8c-1.7,0-3.5-1.3-12.9-10c-1.7-1.5-26.2-25.6-44.1-44.3
		c-19.7-20.6-38.8-40.7-44-46.5L1893.7,1380.2z"/>
	<path class="st0" d="M2084.2,1355c0,15.8,0,28.7,0.8,35.5c0.6,4.8,1.4,7.9,6.6,8.7c2.3,0.4,6.2,0.8,7.7,0.8c1.2,0,1.3,0.8,1.3,1.3
		c0,0.8-0.8,1.3-2.7,1.3c-9.3,0-20.1-0.6-21-0.6c-0.8,0-12.5,0.6-17.5,0.6c-1.9,0-2.7-0.4-2.7-1.3c0-0.6,0.4-1.2,1.3-1.2
		c1.5,0,3.5-0.4,5-0.8c3.5-0.8,4.4-4,5-8.9c0.8-6.7,0.8-19.7,0.8-35.5v-68.8l-24.5,0.4c-10.6,0.2-14.7,1.3-17.2,5.2
		c-1.9,2.9-2.1,4-2.7,5.2c-0.4,1.3-1,1.5-1.7,1.5c-0.4,0-1.2-0.4-1.2-1.3c0-1.7,3.5-16.4,3.7-17.7c0.4-1,1.2-3.1,1.7-3.1
		c1.2,0,2.9,1.3,7.5,1.9c4.8,0.6,11.4,0.8,13.3,0.8h64c5.6,0,9.4-0.4,12.1-0.8c2.5-0.4,4-0.8,4.8-0.8s0.8,1,0.8,1.9
		c0,5-0.6,16.8-0.6,18.7c0,1.3-0.8,2.1-1.5,2.1s-1.2-0.6-1.3-2.9l-0.2-1.7c-0.6-5-4.2-8.7-20.4-9.1l-21.2-0.4L2084.2,1355
		L2084.2,1355z"/>
</g>
<g>
	<path class="st0" d="M255.3,1075.6c5.1,0,9.3-4.2,9.3-9.3c0-5.1-4.2-9.3-9.3-9.3c-4.9,0-9.3,4.2-9.3,9
		C246.1,1071.5,250.1,1075.6,255.3,1075.6z"/>
	<path class="st0" d="M283.1,1075.6c5.1,0,9.3-4.2,9.3-9.3c0-5.1-4.2-9.3-9.3-9.3c-4.9,0-9.3,4.2-9.3,9
		C273.8,1071.5,277.8,1075.6,283.1,1075.6z"/>
	<path class="st0" d="M315.9,1098.3l0.4,1.2l0.1,0.1c2.4,1.7,2.4,3.7,2.4,12v12.1c0,12.8-1,24.3-12.6,24.3h-66.4
		c-13.9,0-25.4-6.6-30-17.2c-4.9-11.2-1.3-24.4,9.8-36.3l0.2-0.2l-2.7-5.7l-0.4,0.4c-22.4,21.2-18.3,40-15.4,47.1
		c5.2,13,18.6,21.7,33.4,21.7h78.1c13.6,0,21.2-8.7,21.2-24.4v-28.7c0-7.9,1.2-11.6,2.3-14v-2.3l-20,9.9H315.9z"/>
	<path class="st0" d="M608.6,1188.5c-4.9,0-9.3,4.2-9.3,9c0,5.4,4,9.5,9.3,9.5c5.1,0,9.3-4.2,9.3-9.3
		C617.9,1192.7,613.8,1188.5,608.6,1188.5z"/>
	<path class="st0" d="M796,1087.6c-37.4,0-56.2,29.8-64.3,49l2.5-121.5c0-6.8,1.1-10.4,1.8-12.7c0.4-1.2,0.6-2.1,0.5-2.9l-0.1-0.6
		L716,1009l0.4,0.4c2.4,2.4,2.7,3.6,2.7,12.8V1148H693h-3.2h-42.3h-3.2H634c-6.4,0-16.2-6.3-16.8-16.1v-27.3c0-7.9,1.2-11.6,2.3-14
		v-2.3l-20,9.9l-0.3,0.2l0.4,1.2l0.1,0.1c2.4,1.7,2.4,3.7,2.4,12v16.5c0,4,0.1,12.3-4.4,16.8c-2,2-4.8,3.1-8.2,3.1h-15h-3.2H529h-3
		h-42.3h-3.2h-42.3H435h-42.3h-3.2h-12.2c-11.7,0-12.6-11.5-12.6-24.3v-110c0-7.9,1.2-11.6,2.3-14v-2.3l-20,9.9l-0.3,0.2l0.4,1.2
		l0.1,0.1c2.4,1.7,2.4,3.7,2.4,12v112.6c0,15.8,7.5,24.4,21.2,24.4h18.7h3.2H435h3.2h42.3h3.2H526h3.2h42.3h3.2h21.5
		c9.3,0,15.5-3.8,19-11.7c4.8,6.6,10.6,9.1,15.2,10.5c3.4,0.8,6.4,1.2,9.2,1.2h4.9h3.2H690h3.2h123.3c13.3,0,20-9.2,20-27.5
		C836.3,1110.5,825.8,1087.6,796,1087.6z M821,1132.1c0,14.2-5.7,15.9-10.1,15.9h-79.1c2.7-5.8,9.6-19.3,20.8-30.7
		c12.3-12.5,26-18.8,40.8-18.8c11.2,0,19.1,4.1,23.4,12.2C820.6,1117.7,821,1126.2,821,1132.1z"/>
	<path class="st0" d="M1333.6,1007.4l0.4,1.2l0.1,0.1c2.4,1.7,2.4,3.7,2.4,12v103c0,12.8-1,24.3-12.6,24.3h-18.2h-3.2h-10.3
		c-6.4,0-16.2-6.3-16.8-16.1v-118.2c0-7.9,1.2-11.6,2.3-14v-2.3l-20.3,10l0.4,1.2l0.1,0.1c2.4,1.7,2.4,3.7,2.4,12v107.4
		c0,4,0.1,12.3-4.4,16.8c-2,2-4.8,3.1-8.2,3.1h-15h-3.2h-42.3h-3.2h-42.3h-3.2h-42.3h-3.2h-42h-3.2h-9.6c-10.9,0-13.3-10.1-13.3-14
		v-8.6c0-17.7-10.3-26.3-31.4-26.3c-22.8,0-39.5,14.5-40.7,35.4c0,0.1-0.3,13.6-12.6,13.6H932h-3.2h-10.3c-6.3,0-15.7-5.3-16.8-15.2
		v-24.2c0-6.6,2.1-18.3,2.7-19.4l0.4-0.6h-21.3l0.4,0.6c0.6,1.1,2.7,12.8,2.7,19.4v64.3c-0.2,4.4-1.3,8.6-3.2,12.4
		c-4.5,8.2-12.1,12.1-23.2,12.1c-4.4,0-10.9-0.8-17-4.6l-0.7-0.4l0.3,6.9l0.2,0.1c9.9,6.1,15.2,7.8,24.7,7.8c19.1,0,34-14.1,34-32.1
		v-26.1c4.5,5,9.8,6.9,13.9,7.9c2.5,0.6,5.3,0.9,8.3,0.9h4.9h3.2h11.7c5.1,0,9.5-1.4,13.4-4.2c5.3,10.8,18.2,17.3,27.7,17.3
		c16.4,0,28.4-6.7,34.6-19.3c4.1,4.1,9.1,6.2,14.8,6.2h13.8h3.2h42.3h3.2h42.3h3.2h42.3h3.2h42.3h3.2h21.5c9.3,0,15.5-3.8,19-11.7
		c4.8,6.6,10.6,9.1,15.2,10.5c3.4,0.8,6.4,1.2,9.2,1.2h4.9h3.2h24.7c13.7,0,21.2-8.7,21.2-24.4v-119.6c0-7.9,1.2-11.6,2.3-14v-2.3
		l-19.9,9.9L1333.6,1007.4z M993.4,1104.7c15.5,0,15.8,14.3,16.2,29.5c0,1.9,0.1,3.9,0.2,5.8c0.3,8.7-1.4,15-4.9,18.6
		c-2.6,2.7-6.3,4-11,4c-13.4,0-25.2-14.5-25.2-31C968.7,1117,980,1104.7,993.4,1104.7z"/>
	<path class="st0" d="M1452.3,1231.6c-4.8,0-8.8,4.2-8.8,9.3c0,5.2,4,9.5,8.8,9.5c4.9,0,9.3-4.4,9.3-9.5
		C1461.6,1236.1,1457.2,1231.6,1452.3,1231.6z"/>
	<path class="st0" d="M1480,1231.6c-4.9,0-9.3,4.4-9.3,9.3c0,5.4,4,9.5,9.3,9.5c4.9,0,8.8-4.3,8.8-9.5
		C1488.8,1235.9,1484.8,1231.6,1480,1231.6z"/>
	<path class="st0" d="M1889.9,1098.3l0.4,1.2l0.1,0.1c2.4,1.7,2.4,3.7,2.4,12v12.1c0,12.8-1,24.3-12.6,24.3H1862h-3.2h-42.3h-3.2
		H1771h-3.2h-42.3h-3.2H1680h-3.2h-42.3h-3.2H1589h-3.2h-42.3h-3.2h-15.1c-4.4-10.8-17.9-18.9-30.6-25.4l-0.6-0.3v9.8l0.2,0.1
		c11,5.8,17.9,14.1,19.4,23.4c1.4,8.9-2.2,18.2-10.4,26.7c-9.7,10.1-18.6,11.5-26.7,11.5c-20.5,0-37.3-13.1-46.2-25.4
		c-5.4-7.5-7.9-14.7-6.6-18.8c1.6-3.8,3.5-6.3,10.3-10l0.4-0.2l-2-3.7l-0.4,0.2c-11.8,5.3-19.2,12-20.8,19
		c-1.1,5.7,2.8,14.9,10.4,24.1c11.2,13.6,31.5,28.2,54.9,28.2c11.7,0,26.2-12.8,33.9-20.4c6-6.4,16.1-18.5,16.7-29h13.4h3.2h42.3
		h3.2h42.3h3.2h42.3h3.2h42.3h3.2h42.3h3.2h42.3h3.2h42.3h3.2h24.7c13.7,0,21.2-8.7,21.2-24.4v-28.7c0-7.9,1.2-11.6,2.3-14v-2.3
		l-19.9,9.9L1889.9,1098.3z"/>
	<path class="st0" d="M1885.1,1188.5c-4.9,0-9.3,4.2-9.3,9c0,5.4,4,9.5,9.3,9.5c5.1,0,9.3-4.2,9.3-9.3
		C1894.3,1192.7,1890.2,1188.5,1885.1,1188.5z"/>
	<path class="st0" d="M1950.3,1088.5c-12,0-21.5,4.6-24.9,11.9l-0.2,0.3l0.3,0.2c2.4,1.5,3.5,2.1,4.8,2.9c0.8,0.5,1.8,1,3.2,1.8
		l0.5,0.3l0.1-0.6c1.3-7,5.5-10.4,12.8-10.4c0.5,0,0.9,0,1.4,0c6.4,0.2,12.4,2.2,12.4,15.2v37.8h-36l-4.1,9.7h55.1v-43.1
		C1975.9,1098.1,1971.7,1088.5,1950.3,1088.5z"/>
</g>
<path class="st0" d="M2163.5,1288.9c0-15.4,12.7-28.1,28.1-28.1c15.5,0,28.1,12.7,28.1,28.1c0,15.6-12.6,28.1-28.1,28.1
	C2176.2,1317,2163.5,1304.5,2163.5,1288.9z M2191.6,1312.9c13.2,0,23.9-10.8,23.9-23.9s-10.7-23.9-23.9-23.9
	c-13.1,0-23.9,10.8-23.9,23.9C2167.7,1302.1,2178.5,1312.9,2191.6,1312.9z M2181,1273.4h9.9c5.6,0,12.1,0.9,12.1,9.6
	c0,5.3-3.3,6.3-5.1,7.3l5.5,12.8h-6l-4.6-12h-6.5v12h-5.4v-29.7L2181,1273.4L2181,1273.4z M2186.3,1286.3h6.5c2.5,0,4.6-1.1,4.6-3.8
	c0-2.6-1.8-4-5-4h-6v7.8H2186.3z"/>
<g>
	
		<linearGradient id="SVGID_1_" gradientUnits="userSpaceOnUse" x1="921.784" y1="22.8566" x2="926.7276" y2="190.9454" gradientTransform="matrix(4.3182 -0.6311 0.6251 4.2772 -2984.3328 553.527)">
		<stop  offset="0" style="stop-color:#005CB9"/>
		<stop  offset="9.080362e-02" style="stop-color:#1778C7"/>
		<stop  offset="0.25" style="stop-color:#47B0E4"/>
		<stop  offset="0.273" style="stop-color:#4EB3DB"/>
		<stop  offset="0.3106" style="stop-color:#62BAC3"/>
		<stop  offset="0.3581" style="stop-color:#82C59B"/>
		<stop  offset="0.4137" style="stop-color:#AFD564"/>
		<stop  offset="0.4752" style="stop-color:#E7E81E"/>
		<stop  offset="0.5" style="stop-color:#FFF100"/>
		<stop  offset="0.5239" style="stop-color:#FEEB01"/>
		<stop  offset="0.5547" style="stop-color:#FDDB04"/>
		<stop  offset="0.5894" style="stop-color:#FBC108"/>
		<stop  offset="0.6268" style="stop-color:#F79B0F"/>
		<stop  offset="0.6666" style="stop-color:#F36C17"/>
		<stop  offset="0.7075" style="stop-color:#EE3221"/>
		<stop  offset="0.7398" style="stop-color:#EA0029"/>
		<stop  offset="0.7796" style="stop-color:#E50632"/>
		<stop  offset="0.8445" style="stop-color:#D8174B"/>
		<stop  offset="0.9259" style="stop-color:#C43172"/>
		<stop  offset="1" style="stop-color:#AE4E9C"/>
	</linearGradient>
	<path class="st1" d="M727.1,306.8c-33.5,94.6-31.2,200.6,10.2,291.9C777.6,690,856.8,766,955.2,801.2c0.2-0.3,0.5-0.7,1.4-1
		c4.3-0.9,13.3,2,21,4.4c22,7.7,44.6,13.3,67.6,17.1c43.2,4.6,87.2,0.5,128.9-10.6c-33.3,9.6-68.1,11.6-102.1,10.9
		c-10.2-0.5-18.1-2.9-16.9-5.1s10.2-3.8,20.7-3.1c91.7,2.7,187.9-40.1,253-90c76.6-72.7,115.4-177.2,107.7-275.2
		c-6.8-98.3-57.5-186.6-128.5-239.5c-3.1-2-6-4.8-6.8-6.5c-1.4-2.2-0.2-2.6,2.6-0.9c77.5,50.5,140.3,147.1,144.1,259.8
		c7,111.8-48.1,233.2-148.9,305.4c-11.4,9.7-25.3,16.2-37.6,24.2c39.4-17.8,75.8-44.2,108.2-76.8c2-4.4,6.3-10.6,11.9-17.8
		c12.3-17.6,24.4-35.2,34-54.3c-0.9,0.5-1.7,0.7-2,0.5c-1.9-1.2,1-8.4,5.3-16.9c23.9-47.3,37.2-99.3,39.9-152.3l0.2-3.6
		c3.6-131.8-68.1-258.3-177.5-325.9c-108.7-68.5-252.3-76.1-366-18.3c-2.9,2-7.9,4.3-10.4,4.4c-3.1,0.7-3.1-0.3-0.2-2.6
		c-0.5-0.7-1.9-1.4-0.9-1.9c79.9-50.2,180.9-72.7,285.4-44.4c36.2,9.2,69.8,25.8,101.6,44.4c-31.4-21.7-63.2-41.1-94.4-54.5
		C1100.7,42.8,996.8,53.3,908,88.2l4.1-0.5c-7.7,3.6-15.5,5.8-16.4,4.3c-1.7-1.2,4.1-5.5,12.1-9.4c81.1-40.6,179.1-55.1,271.8-33.3
		c92.5,20.8,178.9,74.4,237.4,151.6c123.2,151.9,114.9,393.5-21.8,541.5c-104.5,120.5-278.8,172.8-431.5,129.9
		c-22.9-5.6-39.4-16.6-37.4-20c2.2-4.4,20.8-0.2,43,4.6c145.6,38.7,307.4-11.8,407.1-122.1c44-48.1,76.5-106,93.9-167.6
		c-14.7,48-39.6,92.7-71.5,130.4c-44,61.1-108.4,110.4-182.8,136.2c-179.2,63.7-376.1-7.5-485.5-160.5
		c-52.7-75.1-79.5-155.5-84.2-236.9c-4.8-81.1,12.8-166.8,64-245.1c4.3-6.8,10.2-14,13.5-15.5c3.4-1.7,2.2,2-1.9,9
		c-97.5,151.1-89.1,335.1,10.9,477.3c105.3,150.4,302.5,223.3,480.9,159.6c12.1-3.6,23.4-9.2,34.8-14.3
		c-38.1,15.9-78.2,24.6-117.6,26.8c-153.5,22-307.8-56.8-384.9-186.7c-61.6-99.3-77.2-225-33.8-336.6c5.8-13.8,13.7-25.9,17.6-27
		C733.8,282.9,732.6,293.3,727.1,306.8z M1433.1,268.9c14.2,23.6,26.3,48.7,34.7,75.1c-30-105-105.5-195.1-203.5-245
		C1333.6,139,1394.7,198.9,1433.1,268.9z"/>
	
		<linearGradient id="SVGID_2_" gradientUnits="userSpaceOnUse" x1="709.7907" y1="237.682" x2="727.8428" y2="851.447" gradientTransform="matrix(-0.6382 0.7699 -0.7699 -0.6382 1970.2695 264.5436)">
		<stop  offset="0" style="stop-color:#005CB9"/>
		<stop  offset="9.080362e-02" style="stop-color:#1778C7"/>
		<stop  offset="0.25" style="stop-color:#47B0E4"/>
		<stop  offset="0.273" style="stop-color:#4EB3DB"/>
		<stop  offset="0.3106" style="stop-color:#62BAC3"/>
		<stop  offset="0.3581" style="stop-color:#82C59B"/>
		<stop  offset="0.4137" style="stop-color:#AFD564"/>
		<stop  offset="0.4752" style="stop-color:#E7E81E"/>
		<stop  offset="0.5" style="stop-color:#FFF100"/>
		<stop  offset="0.5239" style="stop-color:#FEEB01"/>
		<stop  offset="0.5547" style="stop-color:#FDDB04"/>
		<stop  offset="0.5894" style="stop-color:#FBC108"/>
		<stop  offset="0.6268" style="stop-color:#F79B0F"/>
		<stop  offset="0.6666" style="stop-color:#F36C17"/>
		<stop  offset="0.7075" style="stop-color:#EE3221"/>
		<stop  offset="0.7398" style="stop-color:#EA0029"/>
		<stop  offset="0.7796" style="stop-color:#E50632"/>
		<stop  offset="0.8445" style="stop-color:#D8174B"/>
		<stop  offset="0.9259" style="stop-color:#C43172"/>
		<stop  offset="1" style="stop-color:#AE4E9C"/>
	</linearGradient>
	<path class="st2" d="M1356.5,309.6c-43.4-72.4-113.2-128-194.6-150.2c-80.7-22.9-172.8-12.5-248.2,32.4c0.2,0.3,0.2,0.7-0.2,1.4
		c-1.7,3.2-8.5,7.5-14.2,11.3c-16.7,10.1-32.6,21.7-47.5,34.5c-26.3,25.6-47.1,56.3-62.5,89.3c11.8-26.6,29.2-50.4,47.6-72
		c5.8-6.3,11.6-10.1,12.5-8.2c0.7,2-3.1,8.7-9.2,15c-50.9,57.9-74.9,143.4-77.7,212.4c6,88.8,52.9,170,120.5,217.6
		c67.4,48.5,151.9,63,224.3,45.4c2.9-0.9,6.3-1.4,7.9-0.9c2.2,0.3,1.7,1.2-0.9,2c-74.4,23-170.9,11.8-245.8-46.3
		c-76.3-55.5-125.3-156.5-118-260.7c-0.2-12.6,3.1-25.1,4.4-37.4c-9.7,35.2-12.1,72.9-8.4,111.5c1.9,3.8,3.4,9.9,5.1,17.2
		c5,17.4,9.6,34.7,16.9,51.2c0.2-0.9,0.5-1.4,0.9-1.5c1.7-0.5,4.8,5.1,8,12.5c17.8,41,44.4,77.5,77.3,107.7l2.2,2
		c83.5,73.1,204,94.6,306.6,60.1c102.8-33.6,184.9-122.7,208.6-227.4c0.2-2.9,1.5-7.3,2.7-9.2c1.2-2.4,1.9-1.7,1.7,1.2
		c0.7,0,1.9-0.5,1.7,0.5c-10.4,78.9-50,156.4-124.6,208.9c-25.4,18.4-54.3,31.4-83.3,42c30.9-8.7,60.6-18.8,86-31.9
		c69.8-46.8,118.8-119.8,143.9-196.1l-1.9,2.9c1.9-6.8,4.6-13.1,6-13c1.5-0.5,1.4,5.5-0.3,12.8c-17.2,74.4-60.4,145.8-124.4,194.1
		c-63.2,48.8-144.4,76-225.8,72.4c-164.7-1.7-316.8-136.9-339.2-305C693,376,752.9,235,862.6,159c16-11.8,31.9-16.6,33.1-13.5
		c1.7,3.8-11.1,13.5-26.1,25.3C766.2,244.3,712.1,376.3,730,500.2c7.5,54.5,27.7,106.5,58.2,150.9c-23.4-35.3-38.7-75.5-46.1-116.4
		c-15.9-61.5-13.3-129.6,9.9-191.7c55-150.4,206.9-239.7,364.8-228.4c77,6.1,143.4,31.9,198.9,72.7c55.1,40.5,101.1,98,124.4,173.3
		c2,6.5,3.4,14.2,2.9,17.1c-0.7,3.1-2.6,0.3-4.8-6.1C1392.6,227.4,1269,134,1122.9,122.4c-154-12.6-307.3,76.1-361.7,226
		c-4.3,9.7-6.7,20.1-9.4,30.2c10.1-33.1,26.1-63.8,45.7-90.6c68.1-111.3,202.3-169,327.9-149.2c97.5,13.5,187.3,70.8,236.3,158.9
		c5.8,11.3,9.4,22.9,8,25.9C1368.4,326.8,1362.3,320.5,1356.5,309.6z M1001.6,787.5c-22.9-3.4-45.6-9.2-67.3-17.8
		c84.3,36.9,183.3,36.5,268.2-0.3C1139.4,792.8,1067.7,800.2,1001.6,787.5z"/>
	
		<linearGradient id="SVGID_3_" gradientUnits="userSpaceOnUse" x1="939.3283" y1="22.3519" x2="944.2985" y2="191.3414" gradientTransform="matrix(4.3182 -0.6311 0.6251 4.2772 -2984.3328 553.527)">
		<stop  offset="0" style="stop-color:#005CB9"/>
		<stop  offset="9.080362e-02" style="stop-color:#1778C7"/>
		<stop  offset="0.25" style="stop-color:#47B0E4"/>
		<stop  offset="0.273" style="stop-color:#4EB3DB"/>
		<stop  offset="0.3106" style="stop-color:#62BAC3"/>
		<stop  offset="0.3581" style="stop-color:#82C59B"/>
		<stop  offset="0.4137" style="stop-color:#AFD564"/>
		<stop  offset="0.4752" style="stop-color:#E7E81E"/>
		<stop  offset="0.5" style="stop-color:#FFF100"/>
		<stop  offset="0.5239" style="stop-color:#FEEB01"/>
		<stop  offset="0.5547" style="stop-color:#FDDB04"/>
		<stop  offset="0.5894" style="stop-color:#FBC108"/>
		<stop  offset="0.6268" style="stop-color:#F79B0F"/>
		<stop  offset="0.6666" style="stop-color:#F36C17"/>
		<stop  offset="0.7075" style="stop-color:#EE3221"/>
		<stop  offset="0.7398" style="stop-color:#EA0029"/>
		<stop  offset="0.7796" style="stop-color:#E50632"/>
		<stop  offset="0.8445" style="stop-color:#D8174B"/>
		<stop  offset="0.9259" style="stop-color:#C43172"/>
		<stop  offset="1" style="stop-color:#AE4E9C"/>
	</linearGradient>
	<path class="st3" d="M1348.1,127.9c104.6,84.3,161.5,218.2,158.9,348.7c-4.1,62.6-20.7,124.4-49.3,180.3c-4.4,7.9-7,14.7-5.5,15.5
		c1.5,0.9,6.3-4.8,10.9-12.8c14.7-28.5,27.3-58,35.8-88.9c0.3,1,0.9,1.5,1.5,1.5c-28.2,109.6-101.9,207.1-200.2,266
		c-5.5,3.2-9.2,6.7-8.7,7.5s5.5-1,10.9-4.3c104-61.1,179.2-165.6,204.3-280.6c1.5-4.1,2.7-8.9,3.8-14.2
		c17.8-97.5,3.2-197.3-43.4-284.4c-64.4-124.4-183.5-215.9-322.5-238.6c-54.8-8.7-110.1-4.3-164.4,7.7
		c-45.4,9.9-91.3,26.6-126.7,50.4c-48.2,33.3-82.5,73-108,114.5c-1.7,2.7-1,3.4,0.5,1.7c1.5-0.7,4.3-3.8,5.6-5.8
		c25.3-41.8,64.7-81.3,106.7-111.5c87.9-49,190-67.6,289-54.6C1223.7,42.7,1288.2,79.1,1348.1,127.9z"/>
	
		<linearGradient id="SVGID_4_" gradientUnits="userSpaceOnUse" x1="2401.063" y1="1258.2981" x2="3119.5657" y2="1258.2981" gradientTransform="matrix(-0.7771 0.6294 -0.6294 -0.7771 4015.2861 -404.8939)">
		<stop  offset="0" style="stop-color:#005CB9"/>
		<stop  offset="9.080362e-02" style="stop-color:#1778C7"/>
		<stop  offset="0.25" style="stop-color:#47B0E4"/>
		<stop  offset="0.273" style="stop-color:#4EB3DB"/>
		<stop  offset="0.3106" style="stop-color:#62BAC3"/>
		<stop  offset="0.3581" style="stop-color:#82C59B"/>
		<stop  offset="0.4137" style="stop-color:#AFD564"/>
		<stop  offset="0.4752" style="stop-color:#E7E81E"/>
		<stop  offset="0.5" style="stop-color:#FFF100"/>
		<stop  offset="0.5239" style="stop-color:#FEEB01"/>
		<stop  offset="0.5547" style="stop-color:#FDDB04"/>
		<stop  offset="0.5894" style="stop-color:#FBC108"/>
		<stop  offset="0.6268" style="stop-color:#F79B0F"/>
		<stop  offset="0.6666" style="stop-color:#F36C17"/>
		<stop  offset="0.7075" style="stop-color:#EE3221"/>
		<stop  offset="0.7398" style="stop-color:#EA0029"/>
		<stop  offset="0.7796" style="stop-color:#E50632"/>
		<stop  offset="0.8445" style="stop-color:#D8174B"/>
		<stop  offset="0.9259" style="stop-color:#C43172"/>
		<stop  offset="1" style="stop-color:#AE4E9C"/>
	</linearGradient>
	<path class="st4" d="M654.6,391c6.3-97,52.7-197.3,132.8-267.5c78.7-70,188.1-109.1,296.5-102.4c177.4,9.7,328.1,130.4,385.3,293.4
		c19.5,53.8,27.5,110.6,28.5,163.5c0,4.4,0.9,7,1.7,5.5c1.2-1.9,1.5-6.8,1.5-11.8c-0.5-111.6-40.5-223.3-115.9-308.5
		c-74.4-85.5-185.4-140.8-300.1-145.8C975.7,11.7,864.7,51.3,784.6,123c-81.3,71.4-128,174.3-132.8,273c-0.2,2.7,0.3,4.1,1,3.1
		C653.5,397.3,654.4,393.5,654.6,391z"/>
	
		<linearGradient id="SVGID_5_" gradientUnits="userSpaceOnUse" x1="2407.5481" y1="1409.0668" x2="3018.5557" y2="1409.0668" gradientTransform="matrix(-0.7771 0.6294 -0.6294 -0.7771 4015.2861 -404.8939)">
		<stop  offset="0" style="stop-color:#005CB9"/>
		<stop  offset="9.080362e-02" style="stop-color:#1778C7"/>
		<stop  offset="0.25" style="stop-color:#47B0E4"/>
		<stop  offset="0.273" style="stop-color:#4EB3DB"/>
		<stop  offset="0.3106" style="stop-color:#62BAC3"/>
		<stop  offset="0.3581" style="stop-color:#82C59B"/>
		<stop  offset="0.4137" style="stop-color:#AFD564"/>
		<stop  offset="0.4752" style="stop-color:#E7E81E"/>
		<stop  offset="0.5" style="stop-color:#FFF100"/>
		<stop  offset="0.5239" style="stop-color:#FEEB01"/>
		<stop  offset="0.5547" style="stop-color:#FDDB04"/>
		<stop  offset="0.5894" style="stop-color:#FBC108"/>
		<stop  offset="0.6268" style="stop-color:#F79B0F"/>
		<stop  offset="0.6666" style="stop-color:#F36C17"/>
		<stop  offset="0.7075" style="stop-color:#EE3221"/>
		<stop  offset="0.7398" style="stop-color:#EA0029"/>
		<stop  offset="0.7796" style="stop-color:#E50632"/>
		<stop  offset="0.8445" style="stop-color:#D8174B"/>
		<stop  offset="0.9259" style="stop-color:#C43172"/>
		<stop  offset="1" style="stop-color:#AE4E9C"/>
	</linearGradient>
	<path class="st5" d="M1380.2,167.2c-83.5-89.3-202.5-140.1-327.1-140c-67.1,0.2-134,16.7-192.9,53.6
		C781.7,131.2,729.1,195.9,690,276.9c-1.4,2.7-2.2,5.5-1.9,6.3c0.5,0.5,1.9-1.2,3.2-3.8C733.6,192,796.8,119.1,884.4,73.5
		c166.1-87.4,372.3-35.7,494.5,95.6c2.6,2.7,4.8,4.1,5.3,3.9C1384.5,172.5,1382.8,169.7,1380.2,167.2z"/>
	
		<linearGradient id="SVGID_6_" gradientUnits="userSpaceOnUse" x1="2730.7329" y1="1480.327" x2="3035.8979" y2="1480.327" gradientTransform="matrix(-0.7771 0.6294 -0.6294 -0.7771 4015.2861 -404.8939)">
		<stop  offset="0" style="stop-color:#005CB9"/>
		<stop  offset="9.080362e-02" style="stop-color:#1778C7"/>
		<stop  offset="0.25" style="stop-color:#47B0E4"/>
		<stop  offset="0.273" style="stop-color:#4EB3DB"/>
		<stop  offset="0.3106" style="stop-color:#62BAC3"/>
		<stop  offset="0.3581" style="stop-color:#82C59B"/>
		<stop  offset="0.4137" style="stop-color:#AFD564"/>
		<stop  offset="0.4752" style="stop-color:#E7E81E"/>
		<stop  offset="0.5" style="stop-color:#FFF100"/>
		<stop  offset="0.5239" style="stop-color:#FEEB01"/>
		<stop  offset="0.5547" style="stop-color:#FDDB04"/>
		<stop  offset="0.5894" style="stop-color:#FBC108"/>
		<stop  offset="0.6268" style="stop-color:#F79B0F"/>
		<stop  offset="0.6666" style="stop-color:#F36C17"/>
		<stop  offset="0.7075" style="stop-color:#EE3221"/>
		<stop  offset="0.7398" style="stop-color:#EA0029"/>
		<stop  offset="0.7796" style="stop-color:#E50632"/>
		<stop  offset="0.8445" style="stop-color:#D8174B"/>
		<stop  offset="0.9259" style="stop-color:#C43172"/>
		<stop  offset="1" style="stop-color:#AE4E9C"/>
	</linearGradient>
	<path class="st6" d="M936.2,144c-50.5,20.7-97.8,55.8-130.9,100c-32.6,44.6-50.9,96.8-53.4,143.7c-0.2,2.4,0.5,2.9,1.4,1.5
		c0.9-1.5,1.9-4.6,2-7c3.4-45.7,22.4-96.1,55-138.1c32.8-42,78.4-75.3,126.3-95.4c4.4-2.4,8.4-4.1,8.5-5.3
		C944.9,141.9,941,141.8,936.2,144z"/>
	
		<linearGradient id="SVGID_7_" gradientUnits="userSpaceOnUse" x1="2608.8516" y1="1208.2281" x2="3235.4912" y2="1208.2281" gradientTransform="matrix(-0.7771 0.6294 -0.6294 -0.7771 4015.2861 -404.8939)">
		<stop  offset="0" style="stop-color:#005CB9"/>
		<stop  offset="9.080362e-02" style="stop-color:#1778C7"/>
		<stop  offset="0.25" style="stop-color:#47B0E4"/>
		<stop  offset="0.273" style="stop-color:#4EB3DB"/>
		<stop  offset="0.3106" style="stop-color:#62BAC3"/>
		<stop  offset="0.3581" style="stop-color:#82C59B"/>
		<stop  offset="0.4137" style="stop-color:#AFD564"/>
		<stop  offset="0.4752" style="stop-color:#E7E81E"/>
		<stop  offset="0.5" style="stop-color:#FFF100"/>
		<stop  offset="0.5239" style="stop-color:#FEEB01"/>
		<stop  offset="0.5547" style="stop-color:#FDDB04"/>
		<stop  offset="0.5894" style="stop-color:#FBC108"/>
		<stop  offset="0.6268" style="stop-color:#F79B0F"/>
		<stop  offset="0.6666" style="stop-color:#F36C17"/>
		<stop  offset="0.7075" style="stop-color:#EE3221"/>
		<stop  offset="0.7398" style="stop-color:#EA0029"/>
		<stop  offset="0.7796" style="stop-color:#E50632"/>
		<stop  offset="0.8445" style="stop-color:#D8174B"/>
		<stop  offset="0.9259" style="stop-color:#C43172"/>
		<stop  offset="1" style="stop-color:#AE4E9C"/>
	</linearGradient>
	<path class="st7" d="M716,634.7c-58.7-109.2-59.6-244.1-11.3-355.1c25.4-52.4,61.6-99.2,105.7-137.1c6.7-5.1,11.3-10.2,10.2-11.4
		c-0.9-1.2-7.2,1.9-13.8,7.2c-22.9,18.9-43.9,39.9-62.1,63.5c0.2-1.2-0.2-1.7-0.7-1.7c62.8-84,159.8-141.5,264.2-157.2
		c5.8-0.9,10.1-2.4,9.7-3.4c-0.2-1-4.8-1.2-10.8-0.3c-109.6,15.5-210.6,78.7-272.6,168.5c-2.7,2.9-5.5,6.8-8.2,10.8
		c-49.5,77-72.7,168-64,259.1C672.9,607,741.7,727.3,851.4,796c43.4,26.8,91.8,42.5,142.2,51.6c42,7.7,86.9,9.6,125.1,1.5
		c52.7-11.3,96.3-33.3,132.6-60.1c2.2-1.5,2-2.4,0-1.7c-1.7,0.2-5.1,1.7-6.8,3.1c-36.2,26.8-83.8,46.8-129.9,58
		c-91.8,10.9-185-9.4-264.4-55.3C791.5,751.7,749.6,697.7,716,634.7z"/>
	
		<linearGradient id="SVGID_8_" gradientUnits="userSpaceOnUse" x1="2435.0559" y1="1184.5883" x2="3221.05" y2="1184.5883" gradientTransform="matrix(-0.7771 0.6294 -0.6294 -0.7771 4015.2861 -404.8939)">
		<stop  offset="0" style="stop-color:#005CB9"/>
		<stop  offset="9.080362e-02" style="stop-color:#1778C7"/>
		<stop  offset="0.25" style="stop-color:#47B0E4"/>
		<stop  offset="0.273" style="stop-color:#4EB3DB"/>
		<stop  offset="0.3106" style="stop-color:#62BAC3"/>
		<stop  offset="0.3581" style="stop-color:#82C59B"/>
		<stop  offset="0.4137" style="stop-color:#AFD564"/>
		<stop  offset="0.4752" style="stop-color:#E7E81E"/>
		<stop  offset="0.5" style="stop-color:#FFF100"/>
		<stop  offset="0.5239" style="stop-color:#FEEB01"/>
		<stop  offset="0.5547" style="stop-color:#FDDB04"/>
		<stop  offset="0.5894" style="stop-color:#FBC108"/>
		<stop  offset="0.6268" style="stop-color:#F79B0F"/>
		<stop  offset="0.6666" style="stop-color:#F36C17"/>
		<stop  offset="0.7075" style="stop-color:#EE3221"/>
		<stop  offset="0.7398" style="stop-color:#EA0029"/>
		<stop  offset="0.7796" style="stop-color:#E50632"/>
		<stop  offset="0.8445" style="stop-color:#D8174B"/>
		<stop  offset="0.9259" style="stop-color:#C43172"/>
		<stop  offset="1" style="stop-color:#AE4E9C"/>
	</linearGradient>
	<path class="st8" d="M1310.2,700.6c62.1-69.6,98-161.8,95.1-255.2c-1.7-93-42.3-186.6-113.7-252c-0.2,0.2-0.7,0.5-1.5,0.3
		c-3.8-0.7-10.4-6.5-16.4-11.1c-16-14.5-33.1-27.3-51.4-38.7c-35.2-19.6-74.3-31.8-113.7-36.7c31.9,3.6,62.1,14.2,91,26.8
		c8.5,4.1,14.5,8.9,12.5,10.4c-1.7,1.5-10.1-0.3-18.4-4.6c-77.5-34.8-174.8-32.1-248-12.3c-91.3,35.3-161.8,111.6-190,198.5
		c-29.4,87.2-17.2,181.3,24.6,252.3c1.9,2.7,3.2,6.3,3.4,7.9c0.3,2.4-0.9,2.2-2.6-0.3c-48.1-71-67.1-176.8-30.2-275
		c33.6-98.7,123.9-183.8,235.6-210.1c13.1-4.4,27.3-5,40.8-7.5c-39.9,1.2-80.4,10.9-119.7,27.7c-3.2,3.2-9.4,6.8-16.6,10.9
		c-16.7,10.9-33.3,21.5-48.3,34.8c1-0.2,1.7-0.2,2,0.3c1,1.7-4.1,6.8-10.8,12.5c-37.2,32.4-66.9,72.5-88.3,117.1l-1.4,3.1
		c-50,112.3-33.8,246.8,35.3,344c68.5,97.5,188.3,155,305.7,145.8c3.2-0.7,8.2-1,10.6-0.3c2.7,0.5,2.4,1.5-0.7,2.4
		c0.2,0.7,1.2,1.5,0,1.7c-86.2,15-180.3-1.5-259.3-63.2c-27.5-20.7-50.2-46.8-70.8-74.1c19.3,29.7,39.3,58,61.5,80.6
		c71.4,58.6,163.9,86.2,252.1,87.9l-3.8-1.2c8-0.3,15,0.5,15.5,2.2c1,1.5-5.5,3.2-13.7,3.9c-83.6,6.1-172.8-16.2-243.8-67.9
		c-71.5-50.9-126-127.9-148.5-215.1c-51-174.8,42-380,211.3-458.8c131.8-66.6,298.9-49.7,414,41.5c17.6,12.8,27.7,28.2,24.8,30.6
		c-3.6,3.1-17.9-7.2-35-19.3c-110-85.4-266.1-99.4-390.5-39.8c-54.6,26.1-102.6,64.4-139.8,111.3c29.7-36.2,66.9-65.5,107.4-87.1
		c59.4-37,132-56.5,204.5-52.4c175.7,8.7,318.4,139.8,356.9,310.7c18.3,83.3,12.6,162.2-12.5,234c-24.8,71.7-70.3,139.1-142,188.6
		c-6.1,4.4-13.5,8.4-16.7,8.7c-3.6,0.3-1.2-2.7,4.8-7.2c136.9-95.6,195.3-257.2,160.6-415.1C1395.6,225,1253.4,92.2,1078.6,83.8
		c-11.6-1-23.2-0.3-34.8,0.2c38.2-0.3,75.5,6.5,109.9,18.6c138.8,35.3,242.2,158.1,261.7,297.7c17.1,107.5-14.2,221.4-91,301.8
		c-9.9,10.1-21,17.6-24.8,17.2C1295.9,718.7,1300.7,710.2,1310.2,700.6z M694.5,482.5c-3.8-25.1-5.1-51.2-3.1-77.2
		c-11.6,101.1,20.7,205.9,86.5,283.4C733.1,629.8,702.2,556.6,694.5,482.5z"/>
	
		<linearGradient id="SVGID_9_" gradientUnits="userSpaceOnUse" x1="2546.4485" y1="1237.4646" x2="3013.748" y2="1237.4646" gradientTransform="matrix(-0.7771 0.6294 -0.6294 -0.7771 4015.2861 -404.8939)">
		<stop  offset="0" style="stop-color:#005CB9"/>
		<stop  offset="9.080362e-02" style="stop-color:#1778C7"/>
		<stop  offset="0.25" style="stop-color:#47B0E4"/>
		<stop  offset="0.273" style="stop-color:#4EB3DB"/>
		<stop  offset="0.3106" style="stop-color:#62BAC3"/>
		<stop  offset="0.3581" style="stop-color:#82C59B"/>
		<stop  offset="0.4137" style="stop-color:#AFD564"/>
		<stop  offset="0.4752" style="stop-color:#E7E81E"/>
		<stop  offset="0.5" style="stop-color:#FFF100"/>
		<stop  offset="0.5239" style="stop-color:#FEEB01"/>
		<stop  offset="0.5547" style="stop-color:#FDDB04"/>
		<stop  offset="0.5894" style="stop-color:#FBC108"/>
		<stop  offset="0.6268" style="stop-color:#F79B0F"/>
		<stop  offset="0.6666" style="stop-color:#F36C17"/>
		<stop  offset="0.7075" style="stop-color:#EE3221"/>
		<stop  offset="0.7398" style="stop-color:#EA0029"/>
		<stop  offset="0.7796" style="stop-color:#E50632"/>
		<stop  offset="0.8445" style="stop-color:#D8174B"/>
		<stop  offset="0.9259" style="stop-color:#C43172"/>
		<stop  offset="1" style="stop-color:#AE4E9C"/>
	</linearGradient>
	<path class="st9" d="M800.7,407c4.1-63.2,34.3-128.4,86.4-173.9c51.2-45.6,122.4-70.8,192.9-66.6c115.4,6.3,213.4,84.8,250.6,190.8
		c12.6,35,17.9,71.9,18.4,106.3c0,2.9,0.5,4.6,1,3.6c0.9-1.2,1-4.4,1-7.7c-0.3-72.5-26.3-145.3-75.5-200.7
		c-48.5-55.6-120.7-91.5-195.3-94.9c-71-3.8-143.2,22-195.3,68.6C832,278.9,801.6,345.8,798.5,410c-0.2,1.7,0.2,2.7,0.7,2
		C800,411.1,800.5,408.9,800.7,407z"/>
	
		<linearGradient id="SVGID_10_" gradientUnits="userSpaceOnUse" x1="2550.5374" y1="1335.3593" x2="2948.0068" y2="1335.3593" gradientTransform="matrix(-0.7771 0.6294 -0.6294 -0.7771 4015.2861 -404.8939)">
		<stop  offset="0" style="stop-color:#005CB9"/>
		<stop  offset="9.080362e-02" style="stop-color:#1778C7"/>
		<stop  offset="0.25" style="stop-color:#47B0E4"/>
		<stop  offset="0.273" style="stop-color:#4EB3DB"/>
		<stop  offset="0.3106" style="stop-color:#62BAC3"/>
		<stop  offset="0.3581" style="stop-color:#82C59B"/>
		<stop  offset="0.4137" style="stop-color:#AFD564"/>
		<stop  offset="0.4752" style="stop-color:#E7E81E"/>
		<stop  offset="0.5" style="stop-color:#FFF100"/>
		<stop  offset="0.5239" style="stop-color:#FEEB01"/>
		<stop  offset="0.5547" style="stop-color:#FDDB04"/>
		<stop  offset="0.5894" style="stop-color:#FBC108"/>
		<stop  offset="0.6268" style="stop-color:#F79B0F"/>
		<stop  offset="0.6666" style="stop-color:#F36C17"/>
		<stop  offset="0.7075" style="stop-color:#EE3221"/>
		<stop  offset="0.7398" style="stop-color:#EA0029"/>
		<stop  offset="0.7796" style="stop-color:#E50632"/>
		<stop  offset="0.8445" style="stop-color:#D8174B"/>
		<stop  offset="0.9259" style="stop-color:#C43172"/>
		<stop  offset="1" style="stop-color:#AE4E9C"/>
	</linearGradient>
	<path class="st10" d="M1272.7,261.6c-54.3-58-131.8-91.2-212.9-91.2c-43.7,0-87.1,10.9-125.5,34.8c-51,32.8-85.2,74.8-110.8,127.5
		c-0.9,1.7-1.4,3.6-1.2,4.1c0.3,0.3,1.2-0.7,2-2.6C851.9,277.5,893,230,950,200.3c108.1-56.5,242.2-22.9,321.6,62.5
		c1.7,1.9,3.1,2.7,3.4,2.6C1275.4,265,1274.4,263.1,1272.7,261.6z"/>
	
		<linearGradient id="SVGID_11_" gradientUnits="userSpaceOnUse" x1="2760.6826" y1="1381.7612" x2="2959.3225" y2="1381.7612" gradientTransform="matrix(-0.7771 0.6294 -0.6294 -0.7771 4015.2861 -404.8939)">
		<stop  offset="0" style="stop-color:#005CB9"/>
		<stop  offset="9.080362e-02" style="stop-color:#1778C7"/>
		<stop  offset="0.25" style="stop-color:#47B0E4"/>
		<stop  offset="0.273" style="stop-color:#4EB3DB"/>
		<stop  offset="0.3106" style="stop-color:#62BAC3"/>
		<stop  offset="0.3581" style="stop-color:#82C59B"/>
		<stop  offset="0.4137" style="stop-color:#AFD564"/>
		<stop  offset="0.4752" style="stop-color:#E7E81E"/>
		<stop  offset="0.5" style="stop-color:#FFF100"/>
		<stop  offset="0.5239" style="stop-color:#FEEB01"/>
		<stop  offset="0.5547" style="stop-color:#FDDB04"/>
		<stop  offset="0.5894" style="stop-color:#FBC108"/>
		<stop  offset="0.6268" style="stop-color:#F79B0F"/>
		<stop  offset="0.6666" style="stop-color:#F36C17"/>
		<stop  offset="0.7075" style="stop-color:#EE3221"/>
		<stop  offset="0.7398" style="stop-color:#EA0029"/>
		<stop  offset="0.7796" style="stop-color:#E50632"/>
		<stop  offset="0.8445" style="stop-color:#D8174B"/>
		<stop  offset="0.9259" style="stop-color:#C43172"/>
		<stop  offset="1" style="stop-color:#AE4E9C"/>
	</linearGradient>
	<path class="st11" d="M983.8,246.4c-32.8,13.5-63.7,36.2-85.2,65c-21.2,29-33.1,63-34.8,93.4c-0.2,1.5,0.3,1.9,0.9,1
		c0.7-1,1.2-3.1,1.4-4.6c2.2-29.7,14.5-62.5,35.8-90c21.3-27.3,50.9-49,82.1-62.1c2.9-1.5,5.5-2.6,5.5-3.4
		C989.5,245,986.9,245,983.8,246.4z"/>
	
		<linearGradient id="SVGID_12_" gradientUnits="userSpaceOnUse" x1="2681.1406" y1="1204.7554" x2="3088.8381" y2="1204.7554" gradientTransform="matrix(-0.7771 0.6294 -0.6294 -0.7771 4015.2861 -404.8939)">
		<stop  offset="0" style="stop-color:#005CB9"/>
		<stop  offset="9.080362e-02" style="stop-color:#1778C7"/>
		<stop  offset="0.25" style="stop-color:#47B0E4"/>
		<stop  offset="0.273" style="stop-color:#4EB3DB"/>
		<stop  offset="0.3106" style="stop-color:#62BAC3"/>
		<stop  offset="0.3581" style="stop-color:#82C59B"/>
		<stop  offset="0.4137" style="stop-color:#AFD564"/>
		<stop  offset="0.4752" style="stop-color:#E7E81E"/>
		<stop  offset="0.5" style="stop-color:#FFF100"/>
		<stop  offset="0.5239" style="stop-color:#FEEB01"/>
		<stop  offset="0.5547" style="stop-color:#FDDB04"/>
		<stop  offset="0.5894" style="stop-color:#FBC108"/>
		<stop  offset="0.6268" style="stop-color:#F79B0F"/>
		<stop  offset="0.6666" style="stop-color:#F36C17"/>
		<stop  offset="0.7075" style="stop-color:#EE3221"/>
		<stop  offset="0.7398" style="stop-color:#EA0029"/>
		<stop  offset="0.7796" style="stop-color:#E50632"/>
		<stop  offset="0.8445" style="stop-color:#D8174B"/>
		<stop  offset="0.9259" style="stop-color:#C43172"/>
		<stop  offset="1" style="stop-color:#AE4E9C"/>
	</linearGradient>
	<path class="st12" d="M840.6,565.6c-38.2-71-38.7-158.8-7.3-231c16.6-34.1,40.1-64.5,68.8-89.1c4.3-3.4,7.3-6.7,6.7-7.5
		c-0.5-0.7-4.6,1.2-9,4.6c-14.7,12.5-28.3,26.1-40.3,41.3c0.2-0.7-0.2-1-0.5-1.2c40.8-54.6,104-92,171.9-102.3
		c3.8-0.5,6.5-1.5,6.3-2.2c0-0.7-3.1-0.7-7-0.2c-71.4,10.1-137.1,51.2-177.4,109.6c-1.9,1.9-3.6,4.4-5.3,7
		c-32.3,50.2-47.3,109.2-41.7,168.5c6.8,84.2,51.6,162.5,123.1,207.1c28.2,17.4,59.7,27.7,92.5,33.5c27.3,5,56.5,6.1,81.4,1
		c34.3-7.3,62.6-21.7,86.2-39.1c1.4-1,1.4-1.5,0-1c-1,0-3.2,1.2-4.4,2c-23.6,17.4-54.5,30.4-84.5,37.7c-59.7,7.2-120.3-6.1-172.1-36
		C889.6,641.7,862.5,606.6,840.6,565.6z"/>
	
		<linearGradient id="SVGID_13_" gradientUnits="userSpaceOnUse" x1="2568.3782" y1="1188.7833" x2="3079.7893" y2="1188.7833" gradientTransform="matrix(-0.7771 0.6294 -0.6294 -0.7771 4015.2861 -404.8939)">
		<stop  offset="0" style="stop-color:#005CB9"/>
		<stop  offset="9.080362e-02" style="stop-color:#1778C7"/>
		<stop  offset="0.25" style="stop-color:#47B0E4"/>
		<stop  offset="0.273" style="stop-color:#4EB3DB"/>
		<stop  offset="0.3106" style="stop-color:#62BAC3"/>
		<stop  offset="0.3581" style="stop-color:#82C59B"/>
		<stop  offset="0.4137" style="stop-color:#AFD564"/>
		<stop  offset="0.4752" style="stop-color:#E7E81E"/>
		<stop  offset="0.5" style="stop-color:#FFF100"/>
		<stop  offset="0.5239" style="stop-color:#FEEB01"/>
		<stop  offset="0.5547" style="stop-color:#FDDB04"/>
		<stop  offset="0.5894" style="stop-color:#FBC108"/>
		<stop  offset="0.6268" style="stop-color:#F79B0F"/>
		<stop  offset="0.6666" style="stop-color:#F36C17"/>
		<stop  offset="0.7075" style="stop-color:#EE3221"/>
		<stop  offset="0.7398" style="stop-color:#EA0029"/>
		<stop  offset="0.7796" style="stop-color:#E50632"/>
		<stop  offset="0.8445" style="stop-color:#D8174B"/>
		<stop  offset="0.9259" style="stop-color:#C43172"/>
		<stop  offset="1" style="stop-color:#AE4E9C"/>
	</linearGradient>
	<path class="st13" d="M1227.1,608.5c40.5-45.2,63.7-105.3,62-165.9c-1.2-60.4-27.5-121.4-73.9-163.9c-0.2,0.2-0.5,0.3-1,0.2
		c-2.4-0.5-6.8-4.3-10.6-7.2c-10.4-9.4-21.5-17.8-33.5-25.3c-23-12.6-48.3-20.5-74.1-23.7c20.7,2.4,40.5,9.2,59.2,17.4
		c5.5,2.6,9.4,5.8,8.2,6.8c-1,1-6.5-0.3-11.9-2.9c-50.4-22.7-113.7-21-161.3-8c-59.4,23-105.2,72.7-123.6,129.4
		c-18.9,56.7-11.1,118,16,164c1.2,1.7,2,4.1,2.2,5.1c0.2,1.5-0.5,1.5-1.7-0.2c-31.2-46.3-43.5-115.1-19.6-178.9
		c21.8-64.2,80.7-119.7,153.3-136.7c8.5-2.9,17.8-3.2,26.5-5c-26.1,0.9-52.4,7.2-77.8,17.9c-2,2-6.1,4.4-10.8,7.2
		c-10.9,7-21.7,14-31.4,22.5c0.7-0.2,1,0,1.4,0.2c0.7,1-2.6,4.4-7,8.2c-24.2,21-43.5,47.3-57.5,76.1l-0.9,2
		c-32.4,73.1-22,160.5,23,223.8c44.6,63.5,122.6,100.9,198.9,94.7c2-0.5,5.3-0.7,6.8-0.2c1.9,0.3,1.5,1-0.5,1.7c0.2,0.3,0.7,1,0,1.2
		c-56,9.7-117.3-1-168.8-41.1c-17.9-13.5-32.8-30.6-46.1-48.3c12.5,19.3,25.6,37.7,39.9,52.4c46.4,38.1,106.7,56,164,57.2l-2.4-0.7
		c5.1-0.3,9.7,0.3,10.1,1.4c0.7,1-3.6,2-8.9,2.6c-54.5,3.9-112.3-10.6-158.6-44.2c-46.6-33.1-81.9-83.1-96.6-139.8
		C787,394.9,847.5,261.4,957.7,210c85.7-43.4,194.4-32.3,269.4,27c11.4,8.4,17.9,18.3,16,19.8c-2.4,2-11.6-4.6-22.7-12.5
		c-71.9-55.3-173.3-64.5-254.2-25.6c-35.7,16.9-66.7,41.8-91,72.4c19.3-23.6,43.5-42.7,69.8-56.7c38.6-24.1,85.9-36.9,133-34
		c114.2,5.6,207.1,91,232.2,202.1c11.8,54.1,8.2,105.5-8.2,152.3c-16.2,46.6-45.7,90.5-92.3,122.7c-3.9,2.9-8.9,5.5-10.9,5.6
		c-2.2,0.2-0.9-1.7,3.1-4.6c89.1-62.1,127-167.3,104.5-270.1c-23.7-108.7-116.2-195.1-229.9-200.6c-7.5-0.7-15.2-0.2-22.7,0
		c24.9-0.2,49.2,4.3,71.5,12.1c90.3,23,157.6,102.9,170.4,193.6c11.1,70-9.2,144.1-59.2,196.3c-6.5,6.5-13.7,11.4-16,11.1
		C1217.9,620.2,1221,614.8,1227.1,608.5z M826.6,466.6c-2.4-16.4-3.2-33.3-2-50.2c-7.5,65.7,13.5,133.8,56.3,184.4
		C851.7,562.5,831.8,514.7,826.6,466.6z"/>
	
		<linearGradient id="SVGID_14_" gradientUnits="userSpaceOnUse" x1="2737.7817" y1="-991.3099" x2="2767.1572" y2="-991.3099" gradientTransform="matrix(0.5348 0.845 -0.845 0.5348 -1224.1587 -1225.0126)">
		<stop  offset="0" style="stop-color:#005CB9"/>
		<stop  offset="9.080362e-02" style="stop-color:#1778C7"/>
		<stop  offset="0.25" style="stop-color:#47B0E4"/>
		<stop  offset="0.273" style="stop-color:#4EB3DB"/>
		<stop  offset="0.3106" style="stop-color:#62BAC3"/>
		<stop  offset="0.3581" style="stop-color:#82C59B"/>
		<stop  offset="0.4137" style="stop-color:#AFD564"/>
		<stop  offset="0.4752" style="stop-color:#E7E81E"/>
		<stop  offset="0.5" style="stop-color:#FFF100"/>
		<stop  offset="0.5239" style="stop-color:#FEEB01"/>
		<stop  offset="0.5547" style="stop-color:#FDDB04"/>
		<stop  offset="0.5894" style="stop-color:#FBC108"/>
		<stop  offset="0.6268" style="stop-color:#F79B0F"/>
		<stop  offset="0.6666" style="stop-color:#F36C17"/>
		<stop  offset="0.7075" style="stop-color:#EE3221"/>
		<stop  offset="0.7398" style="stop-color:#EA0029"/>
		<stop  offset="0.7796" style="stop-color:#E50632"/>
		<stop  offset="0.8445" style="stop-color:#D8174B"/>
		<stop  offset="0.9259" style="stop-color:#C43172"/>
		<stop  offset="1" style="stop-color:#AE4E9C"/>
	</linearGradient>
	<path class="st14" d="M1115.3,568.2c-19.6,5.5-41,6.1-60.1,5c-0.9,0-1.5,0.2-1,0.3s1.5,0.5,2.6,0.5c18.4,1,39.3,0.2,58.2-5
		c1-0.3,2-0.9,2-1C1117.2,567.8,1116.3,567.8,1115.3,568.2z"/>
	
		<linearGradient id="SVGID_15_" gradientUnits="userSpaceOnUse" x1="2496.3013" y1="-1031.9128" x2="2732.1196" y2="-1031.9128" gradientTransform="matrix(0.5348 0.845 -0.845 0.5348 -1224.1587 -1225.0126)">
		<stop  offset="0" style="stop-color:#005CB9"/>
		<stop  offset="9.080362e-02" style="stop-color:#1778C7"/>
		<stop  offset="0.25" style="stop-color:#47B0E4"/>
		<stop  offset="0.273" style="stop-color:#4EB3DB"/>
		<stop  offset="0.3106" style="stop-color:#62BAC3"/>
		<stop  offset="0.3581" style="stop-color:#82C59B"/>
		<stop  offset="0.4137" style="stop-color:#AFD564"/>
		<stop  offset="0.4752" style="stop-color:#E7E81E"/>
		<stop  offset="0.5" style="stop-color:#FFF100"/>
		<stop  offset="0.5239" style="stop-color:#FEEB01"/>
		<stop  offset="0.5547" style="stop-color:#FDDB04"/>
		<stop  offset="0.5894" style="stop-color:#FBC108"/>
		<stop  offset="0.6268" style="stop-color:#F79B0F"/>
		<stop  offset="0.6666" style="stop-color:#F36C17"/>
		<stop  offset="0.7075" style="stop-color:#EE3221"/>
		<stop  offset="0.7398" style="stop-color:#EA0029"/>
		<stop  offset="0.7796" style="stop-color:#E50632"/>
		<stop  offset="0.8445" style="stop-color:#D8174B"/>
		<stop  offset="0.9259" style="stop-color:#C43172"/>
		<stop  offset="1" style="stop-color:#AE4E9C"/>
	</linearGradient>
	<path class="st15" d="M1041.5,571.8c-31.4-5.8-62.3-24.8-82.1-53.4c-19.8-28.5-28.3-65.5-22-100.7c9.9-57.4,55-101.9,110.4-114.4
		c18.3-4.3,37-4.8,54.3-3.1c1.5,0.2,2.4,0,1.9-0.3c-0.5-0.5-2.2-0.7-3.8-1c-36.4-4.1-74.4,4.8-105,25.9
		c-30.7,21-52.9,55.1-58.9,92.3c-6.1,35.3,2.6,73.1,22.9,101.9c20.1,29.2,51.9,48.3,83.8,53.8c0.9,0.2,1.4,0,1-0.2
		C1043.6,572.3,1042.4,571.9,1041.5,571.8z"/>
	
		<linearGradient id="SVGID_16_" gradientUnits="userSpaceOnUse" x1="2498.511" y1="-982.2866" x2="2698.9944" y2="-982.2866" gradientTransform="matrix(0.5348 0.845 -0.845 0.5348 -1224.1587 -1225.0126)">
		<stop  offset="0" style="stop-color:#005CB9"/>
		<stop  offset="9.080362e-02" style="stop-color:#1778C7"/>
		<stop  offset="0.25" style="stop-color:#47B0E4"/>
		<stop  offset="0.273" style="stop-color:#4EB3DB"/>
		<stop  offset="0.3106" style="stop-color:#62BAC3"/>
		<stop  offset="0.3581" style="stop-color:#82C59B"/>
		<stop  offset="0.4137" style="stop-color:#AFD564"/>
		<stop  offset="0.4752" style="stop-color:#E7E81E"/>
		<stop  offset="0.5" style="stop-color:#FFF100"/>
		<stop  offset="0.5239" style="stop-color:#FEEB01"/>
		<stop  offset="0.5547" style="stop-color:#FDDB04"/>
		<stop  offset="0.5894" style="stop-color:#FBC108"/>
		<stop  offset="0.6268" style="stop-color:#F79B0F"/>
		<stop  offset="0.6666" style="stop-color:#F36C17"/>
		<stop  offset="0.7075" style="stop-color:#EE3221"/>
		<stop  offset="0.7398" style="stop-color:#EA0029"/>
		<stop  offset="0.7796" style="stop-color:#E50632"/>
		<stop  offset="0.8445" style="stop-color:#D8174B"/>
		<stop  offset="0.9259" style="stop-color:#C43172"/>
		<stop  offset="1" style="stop-color:#AE4E9C"/>
	</linearGradient>
	<path class="st16" d="M996.3,326.6c-32.3,23.9-53.4,60.8-58.2,101.2c-2.6,21.8,0.3,44.4,10.1,65c13.5,27.5,32.4,47.1,57.4,63
		c0.9,0.5,1.7,0.9,2,0.9c0.2-0.2-0.3-0.7-1.2-1.2c-26.8-17.1-48.3-40.5-59.7-70.8c-22.2-57.5,2.6-122.7,50-157.6
		c1-0.9,1.5-1.4,1.5-1.5S997.3,325.9,996.3,326.6z"/>
	
		<linearGradient id="SVGID_17_" gradientUnits="userSpaceOnUse" x1="2604.5146" y1="-959.0811" x2="2704.7468" y2="-959.0811" gradientTransform="matrix(0.5348 0.845 -0.845 0.5348 -1224.1587 -1225.0126)">
		<stop  offset="0" style="stop-color:#005CB9"/>
		<stop  offset="9.080362e-02" style="stop-color:#1778C7"/>
		<stop  offset="0.25" style="stop-color:#47B0E4"/>
		<stop  offset="0.273" style="stop-color:#4EB3DB"/>
		<stop  offset="0.3106" style="stop-color:#62BAC3"/>
		<stop  offset="0.3581" style="stop-color:#82C59B"/>
		<stop  offset="0.4137" style="stop-color:#AFD564"/>
		<stop  offset="0.4752" style="stop-color:#E7E81E"/>
		<stop  offset="0.5" style="stop-color:#FFF100"/>
		<stop  offset="0.5239" style="stop-color:#FEEB01"/>
		<stop  offset="0.5547" style="stop-color:#FDDB04"/>
		<stop  offset="0.5894" style="stop-color:#FBC108"/>
		<stop  offset="0.6268" style="stop-color:#F79B0F"/>
		<stop  offset="0.6666" style="stop-color:#F36C17"/>
		<stop  offset="0.7075" style="stop-color:#EE3221"/>
		<stop  offset="0.7398" style="stop-color:#EA0029"/>
		<stop  offset="0.7796" style="stop-color:#E50632"/>
		<stop  offset="0.8445" style="stop-color:#D8174B"/>
		<stop  offset="0.9259" style="stop-color:#C43172"/>
		<stop  offset="1" style="stop-color:#AE4E9C"/>
	</linearGradient>
	<path class="st17" d="M971.9,470.5c4.8,17.2,14.5,34,27.7,46.4c13.3,12.3,29.5,20.3,44.7,22.9c0.7,0.2,1,0,0.5-0.3s-1.4-0.9-2.2-1
		c-14.9-2.9-30.4-10.9-43-23.2c-12.5-12.3-21.5-28.3-26.3-44.9c-0.7-1.5-1-2.9-1.4-2.9C971.6,467.5,971.4,468.8,971.9,470.5z"/>
	
		<linearGradient id="SVGID_18_" gradientUnits="userSpaceOnUse" x1="2564.6396" y1="-1048.588" x2="2770.1611" y2="-1048.588" gradientTransform="matrix(0.5348 0.845 -0.845 0.5348 -1224.1587 -1225.0126)">
		<stop  offset="0" style="stop-color:#005CB9"/>
		<stop  offset="9.080362e-02" style="stop-color:#1778C7"/>
		<stop  offset="0.25" style="stop-color:#47B0E4"/>
		<stop  offset="0.273" style="stop-color:#4EB3DB"/>
		<stop  offset="0.3106" style="stop-color:#62BAC3"/>
		<stop  offset="0.3581" style="stop-color:#82C59B"/>
		<stop  offset="0.4137" style="stop-color:#AFD564"/>
		<stop  offset="0.4752" style="stop-color:#E7E81E"/>
		<stop  offset="0.5" style="stop-color:#FFF100"/>
		<stop  offset="0.5239" style="stop-color:#FEEB01"/>
		<stop  offset="0.5547" style="stop-color:#FDDB04"/>
		<stop  offset="0.5894" style="stop-color:#FBC108"/>
		<stop  offset="0.6268" style="stop-color:#F79B0F"/>
		<stop  offset="0.6666" style="stop-color:#F36C17"/>
		<stop  offset="0.7075" style="stop-color:#EE3221"/>
		<stop  offset="0.7398" style="stop-color:#EA0029"/>
		<stop  offset="0.7796" style="stop-color:#E50632"/>
		<stop  offset="0.8445" style="stop-color:#D8174B"/>
		<stop  offset="0.9259" style="stop-color:#C43172"/>
		<stop  offset="1" style="stop-color:#AE4E9C"/>
	</linearGradient>
	<path class="st18" d="M1123.5,561c-37.9,15-81.9,10.1-116.2-9.9c-16-10.2-30-23.9-40.6-39.6c-1.4-2.4-2.9-4.1-3.4-3.8
		c-0.3,0.2,0.3,2.4,1.9,4.8c5.5,8,11.4,15.7,18.4,22.5c-0.3-0.2-0.5,0-0.7,0.2C958,511.5,943,477.7,941.8,443c0-1.9-0.3-3.4-0.7-3.2
		c-0.3,0-0.5,1.5-0.5,3.4c0.9,36.4,17.6,71.7,44.6,95.3c0.9,1,2,2,3.2,3.1c23.2,19.1,52.1,30,81.9,30.7c42.5,1.5,84.5-16.4,111-49.5
		c10.4-13.1,17.4-28.3,22.2-44.4c4.1-13.5,6.5-28,5.3-40.8c-1.7-17.6-7.2-32.6-14.5-45.4c-0.5-0.9-0.7-0.7-0.5-0.2
		c0,0.5,0.3,1.7,0.7,2.4c7.3,12.8,12.1,29,14,44.6c0,30.4-10.1,59.9-28.2,84.2C1164.4,540.9,1145.2,552.3,1123.5,561z"/>
	
		<linearGradient id="SVGID_19_" gradientUnits="userSpaceOnUse" x1="2439.9414" y1="1454.9817" x2="2701.4138" y2="1454.9817" gradientTransform="matrix(-0.1517 -0.9884 0.9884 -0.1517 25.5396 3203.3723)">
		<stop  offset="0" style="stop-color:#005CB9"/>
		<stop  offset="9.080362e-02" style="stop-color:#1778C7"/>
		<stop  offset="0.25" style="stop-color:#47B0E4"/>
		<stop  offset="0.273" style="stop-color:#4EB3DB"/>
		<stop  offset="0.3106" style="stop-color:#62BAC3"/>
		<stop  offset="0.3581" style="stop-color:#82C59B"/>
		<stop  offset="0.4137" style="stop-color:#AFD564"/>
		<stop  offset="0.4752" style="stop-color:#E7E81E"/>
		<stop  offset="0.5" style="stop-color:#FFF100"/>
		<stop  offset="0.5239" style="stop-color:#FEEB01"/>
		<stop  offset="0.5547" style="stop-color:#FDDB04"/>
		<stop  offset="0.5894" style="stop-color:#FBC108"/>
		<stop  offset="0.6268" style="stop-color:#F79B0F"/>
		<stop  offset="0.6666" style="stop-color:#F36C17"/>
		<stop  offset="0.7075" style="stop-color:#EE3221"/>
		<stop  offset="0.7398" style="stop-color:#EA0029"/>
		<stop  offset="0.7796" style="stop-color:#E50632"/>
		<stop  offset="0.8445" style="stop-color:#D8174B"/>
		<stop  offset="0.9259" style="stop-color:#C43172"/>
		<stop  offset="1" style="stop-color:#AE4E9C"/>
	</linearGradient>
	<path class="st19" d="M1147.4,345.1c-26.3-17.1-58.7-24.2-89.6-18.6c-30.9,5.3-59.9,23.6-77.8,50.7c0.2,0,0.2,0.2,0.2,0.5
		c0,1.4-1.7,3.8-2.9,6c-3.9,6.1-7.3,12.5-10.2,19.1c-4.6,12.6-6.7,26.3-6.3,39.6c-0.3-10.8,1.5-21.3,4.3-31.6
		c0.9-3.1,2.2-5.3,2.7-4.8s0.3,3.4-0.5,6.3c-7.7,27.5-1.9,59.7,8.5,83c16.4,28.5,45.4,48,75.8,52.9c30.4,5.3,61.1-3.6,82.4-21
		c0.9-0.7,1.9-1.4,2.4-1.5c0.9-0.2,0.9,0.2,0,0.9c-21.2,19.6-55.3,31.2-89.8,24.1c-34.5-6.1-67.4-31.9-81.9-67.6
		c-2.2-4.1-3.1-8.7-4.6-13.1c2.4,13.3,7.7,26.1,15.4,38.4c1.2,1,2.7,2.7,4.4,5c4.4,5,8.9,9.9,14,14.3c-0.2-0.3-0.2-0.5,0-0.7
		c0.5-0.5,2.4,1,4.8,2.9c12.6,10.8,27.5,18.6,43.4,23.4l1.2,0.3c39.8,10.9,83.6-1.4,112.5-29.2c29-27.7,42-70.5,32.8-108.9
		c-0.3-1-0.7-2.7-0.7-3.6c0-1,0.3-0.9,0.9,0.2c0.2-0.2,0.5-0.5,0.5-0.2c9.4,27.8,8.7,59.9-7.7,89.4c-5.5,10.2-13,19.1-21,27.3
		c8.9-7.9,17.2-16,23.7-24.6c15.7-26.8,20.3-58.9,16.4-88.3l-0.2,1.4c-0.5-2.6-0.5-5.1,0-5.3c0.5-0.3,1.4,1.7,2,4.3
		c6.3,27.5,3.4,58.2-10.1,84.5c-13.3,26.3-36,48.3-63.8,60.3c-55.5,25.8-128.4,5.5-163.2-46.8c-28.8-40.5-31.8-96.8-7.3-139.6
		c3.4-6.5,8-10.6,8.9-9.7c1.2,1-1.5,6.3-4.6,12.6c-22.7,41.1-19.3,93.5,6.8,132c11.4,16.9,26.6,30.9,44,40.8
		c-13.5-8-25.3-18.8-34.3-31.2c-15.4-17.9-25.6-41-27.8-65.2c-6.1-58.7,30.2-112.8,85-134.3c26.8-10.2,53.3-12.5,78.4-7.9
		s49.8,16.2,70,37.6c1.7,1.9,3.4,4.1,3.8,5.1c0.3,1.2-0.9,0.5-2.6-1.2c-38.7-40.6-95.4-51.7-146.1-32.3
		c-53.6,20.7-90.5,74.6-84.3,133.1c0.2,3.9,1.2,7.7,1.9,11.6c-2-12.6-1.7-25.4,0.5-37.4c4.6-48,40.1-88.6,85.5-102.1
		c34.8-11.3,74.3-6.7,104.8,14.9c3.8,2.7,7,6,7,7.3C1154.2,348.8,1151.1,347.6,1147.4,345.1z M1106.4,560.7
		c-8.2,2.6-16.7,4.3-25.4,5c34.1-1.4,67.3-17.4,89.8-43.2C1153.4,540.3,1130.5,554.3,1106.4,560.7z"/>
	
		<linearGradient id="SVGID_20_" gradientUnits="userSpaceOnUse" x1="3815.2554" y1="-1694.8422" x2="4372.4478" y2="-1694.8422" gradientTransform="matrix(0.4573 -0.8893 0.8893 0.4573 722.6088 4922.7803)">
		<stop  offset="0" style="stop-color:#005CB9"/>
		<stop  offset="9.080362e-02" style="stop-color:#1778C7"/>
		<stop  offset="0.25" style="stop-color:#47B0E4"/>
		<stop  offset="0.273" style="stop-color:#4EB3DB"/>
		<stop  offset="0.3106" style="stop-color:#62BAC3"/>
		<stop  offset="0.3581" style="stop-color:#82C59B"/>
		<stop  offset="0.4137" style="stop-color:#AFD564"/>
		<stop  offset="0.4752" style="stop-color:#E7E81E"/>
		<stop  offset="0.5" style="stop-color:#FFF100"/>
		<stop  offset="0.5239" style="stop-color:#FEEB01"/>
		<stop  offset="0.5547" style="stop-color:#FDDB04"/>
		<stop  offset="0.5894" style="stop-color:#FBC108"/>
		<stop  offset="0.6268" style="stop-color:#F79B0F"/>
		<stop  offset="0.6666" style="stop-color:#F36C17"/>
		<stop  offset="0.7075" style="stop-color:#EE3221"/>
		<stop  offset="0.7398" style="stop-color:#EA0029"/>
		<stop  offset="0.7796" style="stop-color:#E50632"/>
		<stop  offset="0.8445" style="stop-color:#D8174B"/>
		<stop  offset="0.9259" style="stop-color:#C43172"/>
		<stop  offset="1" style="stop-color:#AE4E9C"/>
	</linearGradient>
	<path class="st20" d="M1377.1,348.5c25.9,70.8,24.4,156.5-10.6,231.5c-34,74.3-99.3,136.2-178.6,165.4
		c-128.9,48.7-273.6,10.1-365.3-87.7c-30.6-32.1-54.1-70-71.4-107.2c-1.4-3.1-2.7-4.8-2.9-3.4c-0.2,1.7,1,5.3,2.6,8.9
		c35.2,79,98.7,145.8,178.7,182.8c79.5,37.4,175.7,42,258.6,9.6c79.4-30,145.8-92.9,180.3-168.8c35.3-76.1,36.4-163.9,8.9-235.2
		c-0.7-2-1.5-2.7-1.7-1.9C1375.9,343.7,1376.5,346.6,1377.1,348.5z"/>
	
		<linearGradient id="SVGID_21_" gradientUnits="userSpaceOnUse" x1="3820.4934" y1="-1577.8158" x2="4294.5942" y2="-1577.8158" gradientTransform="matrix(0.4573 -0.8893 0.8893 0.4573 722.6088 4922.7803)">
		<stop  offset="0" style="stop-color:#005CB9"/>
		<stop  offset="9.080362e-02" style="stop-color:#1778C7"/>
		<stop  offset="0.25" style="stop-color:#47B0E4"/>
		<stop  offset="0.273" style="stop-color:#4EB3DB"/>
		<stop  offset="0.3106" style="stop-color:#62BAC3"/>
		<stop  offset="0.3581" style="stop-color:#82C59B"/>
		<stop  offset="0.4137" style="stop-color:#AFD564"/>
		<stop  offset="0.4752" style="stop-color:#E7E81E"/>
		<stop  offset="0.5" style="stop-color:#FFF100"/>
		<stop  offset="0.5239" style="stop-color:#FEEB01"/>
		<stop  offset="0.5547" style="stop-color:#FDDB04"/>
		<stop  offset="0.5894" style="stop-color:#FBC108"/>
		<stop  offset="0.6268" style="stop-color:#F79B0F"/>
		<stop  offset="0.6666" style="stop-color:#F36C17"/>
		<stop  offset="0.7075" style="stop-color:#EE3221"/>
		<stop  offset="0.7398" style="stop-color:#EA0029"/>
		<stop  offset="0.7796" style="stop-color:#E50632"/>
		<stop  offset="0.8445" style="stop-color:#D8174B"/>
		<stop  offset="0.9259" style="stop-color:#C43172"/>
		<stop  offset="1" style="stop-color:#AE4E9C"/>
	</linearGradient>
	<path class="st21" d="M932,734.3c87.2,37.2,187.6,36.2,276-2.9c47.6-21,89.8-53.9,120.2-98.5c39.9-60.3,57-122.6,59.6-192.4
		c0.2-2.4-0.2-4.6-0.7-5.1c-0.5-0.2-1,1.4-1,3.8c-2.7,75.3-24.8,146.8-72.7,206.5c-90.6,114-253.2,141.9-381,86.7
		c-2.7-1.2-4.6-1.4-5-1C927.3,731.9,929.4,733.4,932,734.3z"/>
	
		<linearGradient id="SVGID_22_" gradientUnits="userSpaceOnUse" x1="3976.4507" y1="-1733.4122" x2="4462.439" y2="-1733.4122" gradientTransform="matrix(0.4573 -0.8893 0.8893 0.4573 722.6088 4922.7803)">
		<stop  offset="0" style="stop-color:#005CB9"/>
		<stop  offset="9.080362e-02" style="stop-color:#1778C7"/>
		<stop  offset="0.25" style="stop-color:#47B0E4"/>
		<stop  offset="0.273" style="stop-color:#4EB3DB"/>
		<stop  offset="0.3106" style="stop-color:#62BAC3"/>
		<stop  offset="0.3581" style="stop-color:#82C59B"/>
		<stop  offset="0.4137" style="stop-color:#AFD564"/>
		<stop  offset="0.4752" style="stop-color:#E7E81E"/>
		<stop  offset="0.5" style="stop-color:#FFF100"/>
		<stop  offset="0.5239" style="stop-color:#FEEB01"/>
		<stop  offset="0.5547" style="stop-color:#FDDB04"/>
		<stop  offset="0.5894" style="stop-color:#FBC108"/>
		<stop  offset="0.6268" style="stop-color:#F79B0F"/>
		<stop  offset="0.6666" style="stop-color:#F36C17"/>
		<stop  offset="0.7075" style="stop-color:#EE3221"/>
		<stop  offset="0.7398" style="stop-color:#EA0029"/>
		<stop  offset="0.7796" style="stop-color:#E50632"/>
		<stop  offset="0.8445" style="stop-color:#D8174B"/>
		<stop  offset="0.9259" style="stop-color:#C43172"/>
		<stop  offset="1" style="stop-color:#AE4E9C"/>
	</linearGradient>
	<path class="st22" d="M1257.3,194.7c76,59.2,118.8,154.7,119.1,248.5c-1.7,45.2-12.6,89.8-32.1,130.4c-3.1,5.8-4.8,10.8-3.6,11.4
		c0.9,0.5,4.4-3.6,7.7-9.4c10.1-20.7,18.4-42.2,24.1-64.5c0.2,0.9,0.7,1.2,1,1c-18.3,79.2-69.1,150.4-138.3,194.3
		c-3.9,2.4-6.3,5-6,5.5c0.5,0.7,3.8-0.7,7.7-3.1c72.9-45.4,125-121.7,140.8-204.8c1-2.9,1.9-6.5,2.6-10.2c11.1-70.2-1-142-35.7-204
		c-48-88.6-134.5-152.4-233.9-166.8c-39.1-5.5-78.5-1.5-117.1,7.9c-32.3,7.7-64.7,20.3-89.3,38.1c-34,24.6-57.9,53.8-75.3,84
		c-1,1.9-0.7,2.4,0.5,1.2c1.2-0.5,3.1-2.7,3.9-4.3c17.2-30.4,44.9-59.4,74.1-81.8c61.8-36.5,134.3-51.2,205-43.4
		C1167.2,135.3,1213.6,160.4,1257.3,194.7z"/>
	<g>
		
			<linearGradient id="SVGID_23_" gradientUnits="userSpaceOnUse" x1="713.856" y1="-107.8" x2="715.5058" y2="-107.8" gradientTransform="matrix(1 0 0 1 0 682)">
			<stop  offset="0" style="stop-color:#005CB9"/>
			<stop  offset="9.080362e-02" style="stop-color:#1778C7"/>
			<stop  offset="0.25" style="stop-color:#47B0E4"/>
			<stop  offset="0.273" style="stop-color:#4EB3DB"/>
			<stop  offset="0.3106" style="stop-color:#62BAC3"/>
			<stop  offset="0.3581" style="stop-color:#82C59B"/>
			<stop  offset="0.4137" style="stop-color:#AFD564"/>
			<stop  offset="0.4752" style="stop-color:#E7E81E"/>
			<stop  offset="0.5" style="stop-color:#FFF100"/>
			<stop  offset="0.5239" style="stop-color:#FEEB01"/>
			<stop  offset="0.5547" style="stop-color:#FDDB04"/>
			<stop  offset="0.5894" style="stop-color:#FBC108"/>
			<stop  offset="0.6268" style="stop-color:#F79B0F"/>
			<stop  offset="0.6666" style="stop-color:#F36C17"/>
			<stop  offset="0.7075" style="stop-color:#EE3221"/>
			<stop  offset="0.7398" style="stop-color:#EA0029"/>
			<stop  offset="0.7796" style="stop-color:#E50632"/>
			<stop  offset="0.8445" style="stop-color:#D8174B"/>
			<stop  offset="0.9259" style="stop-color:#C43172"/>
			<stop  offset="1" style="stop-color:#AE4E9C"/>
		</linearGradient>
		<path class="st23" d="M715.5,576.5c-0.5-1.5-1.2-3.1-1.7-4.6C714.3,573.5,715,575,715.5,576.5z"/>
		
			<linearGradient id="SVGID_24_" gradientUnits="userSpaceOnUse" x1="691.9668" y1="-370.2664" x2="1116.803" y2="-370.2664" gradientTransform="matrix(1 0 0 1 0 682)">
			<stop  offset="0" style="stop-color:#005CB9"/>
			<stop  offset="9.080362e-02" style="stop-color:#1778C7"/>
			<stop  offset="0.25" style="stop-color:#47B0E4"/>
			<stop  offset="0.273" style="stop-color:#4EB3DB"/>
			<stop  offset="0.3106" style="stop-color:#62BAC3"/>
			<stop  offset="0.3581" style="stop-color:#82C59B"/>
			<stop  offset="0.4137" style="stop-color:#AFD564"/>
			<stop  offset="0.4752" style="stop-color:#E7E81E"/>
			<stop  offset="0.5" style="stop-color:#FFF100"/>
			<stop  offset="0.5239" style="stop-color:#FEEB01"/>
			<stop  offset="0.5547" style="stop-color:#FDDB04"/>
			<stop  offset="0.5894" style="stop-color:#FBC108"/>
			<stop  offset="0.6268" style="stop-color:#F79B0F"/>
			<stop  offset="0.6666" style="stop-color:#F36C17"/>
			<stop  offset="0.7075" style="stop-color:#EE3221"/>
			<stop  offset="0.7398" style="stop-color:#EA0029"/>
			<stop  offset="0.7796" style="stop-color:#E50632"/>
			<stop  offset="0.8445" style="stop-color:#D8174B"/>
			<stop  offset="0.9259" style="stop-color:#C43172"/>
			<stop  offset="1" style="stop-color:#AE4E9C"/>
		</linearGradient>
		<path class="st24" d="M729.8,276.9C781,164.9,887,91.9,971.7,68.8c85.7-24.9,145.6-13.7,145.1-14.5c-24.2-3.4-152.4-16.9-278.6,83
			c-61.8,47.8-114.5,125.5-136,216.8c-16.9,69.5-12.8,147,11.8,217.6C684.4,486.6,683.6,372.9,729.8,276.9z"/>
		
			<linearGradient id="SVGID_25_" gradientUnits="userSpaceOnUse" x1="919.0283" y1="-570.2488" x2="948.0578" y2="-570.2488" gradientTransform="matrix(1 0 0 1 0 682)">
			<stop  offset="0" style="stop-color:#005CB9"/>
			<stop  offset="9.080362e-02" style="stop-color:#1778C7"/>
			<stop  offset="0.25" style="stop-color:#47B0E4"/>
			<stop  offset="0.273" style="stop-color:#4EB3DB"/>
			<stop  offset="0.3106" style="stop-color:#62BAC3"/>
			<stop  offset="0.3581" style="stop-color:#82C59B"/>
			<stop  offset="0.4137" style="stop-color:#AFD564"/>
			<stop  offset="0.4752" style="stop-color:#E7E81E"/>
			<stop  offset="0.5" style="stop-color:#FFF100"/>
			<stop  offset="0.5239" style="stop-color:#FEEB01"/>
			<stop  offset="0.5547" style="stop-color:#FDDB04"/>
			<stop  offset="0.5894" style="stop-color:#FBC108"/>
			<stop  offset="0.6268" style="stop-color:#F79B0F"/>
			<stop  offset="0.6666" style="stop-color:#F36C17"/>
			<stop  offset="0.7075" style="stop-color:#EE3221"/>
			<stop  offset="0.7398" style="stop-color:#EA0029"/>
			<stop  offset="0.7796" style="stop-color:#E50632"/>
			<stop  offset="0.8445" style="stop-color:#D8174B"/>
			<stop  offset="0.9259" style="stop-color:#C43172"/>
			<stop  offset="1" style="stop-color:#AE4E9C"/>
		</linearGradient>
		<path class="st25" d="M940.3,108.3c-4.6,1.7-11.4,4.6-21.2,9.6c10.9-5.1,18.9-8,21.3-8.2C940.5,109.7,957.7,101.5,940.3,108.3z"/>
		
			<linearGradient id="SVGID_26_" gradientUnits="userSpaceOnUse" x1="694.7369" y1="-233.6575" x2="1480.3059" y2="-233.6575" gradientTransform="matrix(1 0 0 1 0 682)">
			<stop  offset="0" style="stop-color:#005CB9"/>
			<stop  offset="9.080362e-02" style="stop-color:#1778C7"/>
			<stop  offset="0.25" style="stop-color:#47B0E4"/>
			<stop  offset="0.273" style="stop-color:#4EB3DB"/>
			<stop  offset="0.3106" style="stop-color:#62BAC3"/>
			<stop  offset="0.3581" style="stop-color:#82C59B"/>
			<stop  offset="0.4137" style="stop-color:#AFD564"/>
			<stop  offset="0.4752" style="stop-color:#E7E81E"/>
			<stop  offset="0.5" style="stop-color:#FFF100"/>
			<stop  offset="0.5239" style="stop-color:#FEEB01"/>
			<stop  offset="0.5547" style="stop-color:#FDDB04"/>
			<stop  offset="0.5894" style="stop-color:#FBC108"/>
			<stop  offset="0.6268" style="stop-color:#F79B0F"/>
			<stop  offset="0.6666" style="stop-color:#F36C17"/>
			<stop  offset="0.7075" style="stop-color:#EE3221"/>
			<stop  offset="0.7398" style="stop-color:#EA0029"/>
			<stop  offset="0.7796" style="stop-color:#E50632"/>
			<stop  offset="0.8445" style="stop-color:#D8174B"/>
			<stop  offset="0.9259" style="stop-color:#C43172"/>
			<stop  offset="1" style="stop-color:#AE4E9C"/>
		</linearGradient>
		<path class="st26" d="M1466.6,348.3c-25.1-93-74.1-152.3-115.2-190.2c-42-38.1-78.9-55-103.6-66.7c-9.2-3.8-16.9-6.7-23.6-8.9
			c27.1,10.9,52.4,25.8,74.8,43.7c5,4.1,8.4,8,7,8.5c-1,0.9-6-1.7-10.9-5.5l2.9,0.9c-34.7-23-74.8-40.6-116.8-49.5L1181,81l9,13.1
			c40.5,12.6,76.1,35,105,63.3c0.7,0.5-0.3,0.9-0.9,1c1.5,2,1.4,2.7-0.7,1.9c-1.9-0.7-5-3.1-6.7-5c-28.2-23-61.3-39.3-96.4-48.7v2
			c-5.8,16.4,8,9.7,8.2,9.9c121.2,36.2,212.5,142.4,235.7,259c24.6,116.4-13.7,238.3-89.1,315.8c-74.4,79.4-178.9,117.6-273.6,113.7
			c-95.4-2.9-179.1-43.9-236.6-97.5C717.2,597.9,708.8,454.8,726.1,375.4c16.7-83.5,48.7-119.1,46.4-119.8
			c39.8-64.9,82.4-98,111.6-117.4c14.3-9.4,25.8-15.7,34.8-20.3c-16.7,7.9-40.3,20.7-61.5,36.5c-13.5,9.6-25.6,20.3-35.7,29.9
			c5.5-5.3,10.9-10.6,16.6-15.7c27.1-23.9,57.7-44,90.1-59.7c-20.3,9.2-40.3,20-58.9,32.6c15.2-12.1,55-36,94.4-48.8
			c18.9-6.7,37.4-10.6,51.2-13c1.2-0.5,2.4-0.9,3.6-1.2c-31.1,4.3-84.3,16.7-140.5,52.9c-72,44.2-141.5,132.5-162.2,233.9
			c-23.4,101.1,2.6,204.5,40.8,268.2c37.6,64.9,78.2,95.6,77.3,95.8c-14-11.3-69.6-56.2-104.5-141.3
			c-36.9-83.3-42.2-206.4,6.8-308.1c46.8-103.3,141.5-171.9,217.5-198c77.2-26.5,132-21.2,131.4-21.8c-16.2-1.9-86.7-3.8-171.2,35.7
			C829.9,133.5,741,224.5,710.3,337.9c-34.7,112.3-6.7,232.8,38.1,305c44.4,73.7,93.2,106.7,92.3,107c-11.6-8-70.3-52.7-112.2-141.5
			c-5-9.9-9.4-20.7-13.3-31.8c7.3,20.3,16.2,39.9,26.8,58.7c47.5,86,128.4,150.4,214.1,180.1c85.9,29.5,174.3,27.1,242.9,6
			c140.3-43.5,196-134,195.8-130.6c66.9-82.4,85.9-177.2,85.5-240.7C1480.2,385,1465.7,348.3,1466.6,348.3z M821.7,184.4
			c-8.2,8-14.9,15.2-19.5,20.5C808.5,197.9,815,191.1,821.7,184.4z M795.2,213.1c-0.2,0.3-0.3,0.5-0.3,0.5
			C795,213.4,795,213.3,795.2,213.1z"/>
	</g>
</g>
</svg>
